<svg width="20" height="20" viewBox="0 0 20 20" fill="none" xmlns="http://www.w3.org/2000/svg">
<g clip-path="url(#clip0_152_16)">
<path fill-rule="evenodd" clip-rule="evenodd" d="M10 20C15.5228 20 20 15.5228 20 10C20 4.47715 15.5228 0 10 0C4.47715 0 0 4.47715 0 10C0 15.5228 4.47715 20 10 20ZM7.59786 14.5398L10.0417 13.0676L12.4855 14.5398C12.5935 14.6085 12.7064 14.638 12.8242 14.6282C12.9419 14.6183 13.045 14.5791 13.1333 14.5104C13.2216 14.4417 13.2903 14.3558 13.3394 14.2528C13.3885 14.1497 13.3983 14.0344 13.3689 13.9068L12.7211 11.1243L14.8852 9.25465C14.9834 9.16631 15.0447 9.06571 15.0693 8.95285C15.0938 8.83998 15.0864 8.72956 15.0472 8.6216C15.0079 8.51364 14.949 8.42531 14.8705 8.35661C14.792 8.2879 14.684 8.24374 14.5466 8.22411L11.6906 7.97384L10.5864 5.35333C10.5373 5.23555 10.4613 5.14722 10.3582 5.08833C10.2552 5.02944 10.1497 5 10.0417 5C9.93374 5 9.82824 5.02944 9.72518 5.08833C9.62213 5.14722 9.54607 5.23555 9.49699 5.35333L8.39284 7.97384L5.53679 8.22411C5.39938 8.24374 5.29142 8.2879 5.2129 8.35661C5.13439 8.42531 5.0755 8.51364 5.03624 8.6216C4.99698 8.72956 4.98962 8.83998 5.01416 8.95285C5.03869 9.06571 5.10003 9.16631 5.19818 9.25465L7.36231 11.1243L6.71454 13.9068C6.6851 14.0344 6.69491 14.1497 6.74399 14.2528C6.79306 14.3558 6.86176 14.4417 6.95009 14.5104C7.03842 14.5791 7.14148 14.6183 7.25925 14.6282C7.37703 14.638 7.4899 14.6085 7.59786 14.5398Z" fill="#FFCB00"/>
</g>
<defs>
<clipPath id="clip0_152_16">
<rect width="20" height="20" fill="white"/>
</clipPath>
</defs>
</svg>
