<svg width="20" height="20" viewBox="0 0 20 20" fill="none" xmlns="http://www.w3.org/2000/svg">
<g clip-path="url(#clip0_152_7)">
<path d="M11 11V14C11 14.2833 10.9042 14.5208 10.7125 14.7125C10.5208 14.9042 10.2833 15 10 15C9.71667 15 9.47917 14.9042 9.2875 14.7125C9.09583 14.5208 9 14.2833 9 14V11H6C5.71667 11 5.47917 10.9042 5.2875 10.7125C5.09583 10.5208 5 10.2833 5 10C5 9.71667 5.09583 9.47917 5.2875 9.2875C5.47917 9.09583 5.71667 9 6 9H9V6C9 5.71667 9.09583 5.47917 9.2875 5.2875C9.47917 5.09583 9.71667 5 10 5C10.2833 5 10.5208 5.09583 10.7125 5.2875C10.9042 5.47917 11 5.71667 11 6V9H14C14.2833 9 14.5208 9.09583 14.7125 9.2875C14.9042 9.47917 15 9.71667 15 10C15 10.2833 14.9042 10.5208 14.7125 10.7125C14.5208 10.9042 14.2833 11 14 11H11ZM10 20C11.3833 20 12.6833 19.7375 13.9 19.2125C15.1167 18.6875 16.175 17.975 17.075 17.075C17.975 16.175 18.6875 15.1167 19.2125 13.9C19.7375 12.6833 20 11.3833 20 10C20 8.61667 19.7375 7.31667 19.2125 6.1C18.6875 4.88333 17.975 3.825 17.075 2.925C16.175 2.025 15.1167 1.3125 13.9 0.7875C12.6833 0.2625 11.3833 0 10 0C8.61667 0 7.31667 0.2625 6.1 0.7875C4.88333 1.3125 3.825 2.025 2.925 2.925C2.025 3.825 1.3125 4.88333 0.7875 6.1C0.2625 7.31667 -2.98023e-07 8.61667 -2.98023e-07 10V18C-2.98023e-07 18.55 0.195833 19.0208 0.5875 19.4125C0.979166 19.8042 1.45 20 2 20H10Z" fill="white"/>
</g>
<defs>
<clipPath id="clip0_152_7">
<rect width="20" height="20" fill="white" transform="matrix(-1 0 0 1 20 0)"/>
</clipPath>
</defs>
</svg>
