<svg width="20" height="20" viewBox="0 0 20 20" fill="none" xmlns="http://www.w3.org/2000/svg">
<g clip-path="url(#clip0_152_13)">
<path d="M10 20C8.61667 20 7.31667 19.7375 6.1 19.2125C4.88333 18.6875 3.825 17.975 2.925 17.075C2.025 16.175 1.3125 15.1167 0.7875 13.9C0.2625 12.6833 0 11.3833 0 10C0 8.61667 0.2625 7.31667 0.7875 6.1C1.3125 4.88333 2.025 3.825 2.925 2.925C3.825 2.025 4.88333 1.3125 6.1 0.7875C7.31667 0.2625 8.61667 0 10 0C11.3833 0 12.6833 0.2625 13.9 0.7875C15.1167 1.3125 16.175 2.025 17.075 2.925C17.975 3.825 18.6875 4.88333 19.2125 6.1C19.7375 7.31667 20 8.61667 20 10C20 11.3833 19.7375 12.6833 19.2125 13.9C18.6875 15.1167 17.975 16.175 17.075 17.075C16.175 17.975 15.1167 18.6875 13.9 19.2125C12.6833 19.7375 11.3833 20 10 20ZM10 15.5C10.75 14.75 11.4167 13.975 12 13.175C12.5 12.4917 12.9583 11.7417 13.375 10.925C13.7917 10.1083 14 9.3 14 8.5C14 7.4 13.6083 6.45833 12.825 5.675C12.0417 4.89167 11.1 4.5 10 4.5C8.9 4.5 7.95833 4.89167 7.175 5.675C6.39167 6.45833 6 7.4 6 8.5C6 9.3 6.20833 10.1083 6.625 10.925C7.04167 11.7417 7.5 12.4917 8 13.175C8.58333 13.975 9.25 14.75 10 15.5ZM10 10C9.58333 10 9.22917 9.85417 8.9375 9.5625C8.64583 9.27083 8.5 8.91667 8.5 8.5C8.5 8.08333 8.64583 7.72917 8.9375 7.4375C9.22917 7.14583 9.58333 7 10 7C10.4167 7 10.7708 7.14583 11.0625 7.4375C11.3542 7.72917 11.5 8.08333 11.5 8.5C11.5 8.91667 11.3542 9.27083 11.0625 9.5625C10.7708 9.85417 10.4167 10 10 10Z" fill="white"/>
</g>
<defs>
<clipPath id="clip0_152_13">
<rect width="20" height="20" fill="white"/>
</clipPath>
</defs>
</svg>
