<?xml version="1.0" encoding="UTF-8"?>
<svg id="Capa_2" xmlns="http://www.w3.org/2000/svg" viewBox="0 0 38.68 38.68">
  <defs>
    <style>
      .cls-1 {
        fill: #fff;
      }
    </style>
  </defs>
  <g id="Capa_1-2" data-name="Capa_1">
    <g id="icon_linkedin">
      <path class="cls-1" d="M38.68,19.34c0,10.68-8.66,19.34-19.34,19.34h0C8.66,38.68,0,30.02,0,19.34h0C0,8.66,8.66,0,19.34,0h0c10.68,0,19.34,8.66,19.34,19.34h0Z"/>
      <g>
        <circle cx="12.49" cy="11.68" r="2.49"/>
        <rect x="10.41" y="15.83" width="4.15" height="12.46" rx=".19" ry=".19"/>
        <path d="M28.68,20.4v7.06c0,.46-.37.83-.83.83h-2.49c-.46,0-.83-.37-.83-.83v-5.81c0-1.15-.93-2.08-2.08-2.08s-2.08.93-2.08,2.08v5.81c0,.46-.37.83-.83.83h-2.49c-.46,0-.83-.37-.83-.83v-10.79c0-.46.37-.83.83-.83h2.49c.46,0,.83.37.83.83v.53c.83-1.08,2.2-1.78,3.74-1.78,2.29,0,4.57,1.66,4.57,4.98Z"/>
      </g>
    </g>
  </g>
</svg>