<?xml version="1.0" encoding="UTF-8"?>
<svg id="Capa_2" xmlns="http://www.w3.org/2000/svg" viewBox="0 0 38.68 38.68">
  <defs>
    <style>
      .cls-1 {
        fill: #fff;
      }
    </style>
  </defs>
  <g id="Capa_1-2" data-name="Capa_1">
    <g id="icon_facebook">
      <path class="cls-1" d="M38.68,19.34c0,10.68-8.66,19.34-19.34,19.34h0C8.66,38.68,0,30.02,0,19.34h0C0,8.66,8.66,0,19.34,0h0c10.68,0,19.34,8.66,19.34,19.34h0Z"/>
      <path d="M25.07,17.84l-.32,2.59c-.05.43-.42.76-.85.76h-4.19v10.82c-.44.04-.89.06-1.34.06-1.01,0-2-.1-2.96-.29v-10.58h-3.22c-.3,0-.54-.24-.54-.54v-3.24c0-.3.24-.54.54-.54h3.22v-4.86c0-2.98,2.41-5.4,5.37-5.4h3.76c.3,0,.54.24.54.54v3.24c0,.3-.24.54-.54.54h-2.69c-1.19,0-2.15.97-2.15,2.16v3.78h4.51c.52,0,.92.46.85.97Z"/>
    </g>
  </g>
</svg>