<?xml version="1.0" encoding="UTF-8"?>
<!DOCTYPE svg PUBLIC "-//W3C//DTD SVG 1.1//EN" "http://www.w3.org/Graphics/SVG/1.1/DTD/svg11.dtd">
<!-- Creator: CorelDRAW 2018 (64 Bit) -->
<svg xmlns="http://www.w3.org/2000/svg" xml:space="preserve" width="16px" height="16px" version="1.1" shape-rendering="geometricPrecision" text-rendering="geometricPrecision" image-rendering="optimizeQuality" fill-rule="evenodd" clip-rule="evenodd"
viewBox="0 0 16 16"
 xmlns:xlink="http://www.w3.org/1999/xlink">
 <g id="Capa_x0020_1">
  <metadata id="CorelCorpID_0Corel-Layer"/>
  <path fill="white" d="M0.44 1.96c-1.06,2.73 0.72,6.35 3.15,9.12 1.6,1.83 3.48,3.29 5.03,3.88 2.03,0.78 5.23,1.82 6.72,-0.35 1.04,-1.53 0.45,-1.86 -0.84,-2.94 -2.12,-1.76 -2.06,-1.83 -3.51,-0.38 -1.53,1.55 -2.66,0.85 -3.79,-0.38 -0.58,-0.64 -1.1,-1.32 -1.7,-1.95 -1.22,-1.28 -2.11,-2.27 -0.9,-4.2 0.58,-0.92 0.78,-1.24 0.52,-2.02 -0.24,-0.68 -0.77,-1.46 -1.43,-2 -1.59,-1.31 -2.58,-0.47 -3.25,1.22z"/>
 </g>
</svg>
