<?xml version="1.0" encoding="UTF-8"?>
<svg id="Capa_2" xmlns="http://www.w3.org/2000/svg" viewBox="0 0 38.68 38.68">
  <defs>
    <style>
      .cls-1 {
        fill: #fff;
      }
    </style>
  </defs>
  <g id="Capa_1-2" data-name="Capa_1">
    <g id="icon_instagram">
      <path class="cls-1" d="M38.68,19.34c0,10.68-8.66,19.34-19.34,19.34h0C8.66,38.68,0,30.02,0,19.34h0C0,8.66,8.66,0,19.34,0h0c10.68,0,19.34,8.66,19.34,19.34h0Z"/>
      <path d="M24.59,9.2h-10.49c-2.7,0-4.9,2.19-4.9,4.9v10.49c0,2.7,2.19,4.9,4.9,4.9h10.49c2.7,0,4.9-2.19,4.9-4.9v-10.49c0-2.7-2.19-4.9-4.9-4.9ZM27.74,24.24c0,1.93-1.57,3.5-3.5,3.5h-9.8c-1.93,0-3.5-1.57-3.5-3.5v-9.8c0-1.93,1.57-3.5,3.5-3.5h9.8c1.93,0,3.5,1.57,3.5,3.5v9.8Z"/>
      <path d="M19.35,14.09c-2.9,0-5.25,2.35-5.25,5.25s2.35,5.25,5.25,5.25,5.25-2.35,5.25-5.25-2.35-5.25-5.25-5.25ZM19.35,22.84c-1.93,0-3.5-1.57-3.5-3.5s1.57-3.5,3.5-3.5,3.5,1.57,3.5,3.5-1.57,3.5-3.5,3.5Z"/>
      <circle cx="24.95" cy="13.74" r="1.05"/>
    </g>
  </g>
</svg>