<?xml version="1.0" encoding="UTF-8"?>
<svg id="Capa_2" xmlns="http://www.w3.org/2000/svg" viewBox="0 0 38.68 38.68">
  <defs>
    <style>
      .cls-1 {
        fill: #fff;
      }
    </style>
  </defs>
  <g id="Capa_1-2" data-name="Capa_1">
    <g id="icon_twitter">
      <path class="cls-1" d="M38.68,19.34c0,10.68-8.66,19.34-19.34,19.34h0C8.66,38.68,0,30.02,0,19.34h0C0,8.66,8.66,0,19.34,0h0c10.68,0,19.34,8.66,19.34,19.34h0Z"/>
      <path d="M22.13,17.56l7.82-8.37h-2.97l-6.14,6.57-4.7-6.57h-8.13l8.23,11.49-8.23,8.8h2.97l6.54-7,5.01,7h8.13l-8.53-11.92ZM12.2,11.35h2.83l11.44,15.99h-2.83l-11.44-15.99Z"/>
    </g>
  </g>
</svg>