<?xml version="1.0" encoding="UTF-8"?>
<svg id="Capa_2" xmlns="http://www.w3.org/2000/svg" viewBox="0 0 104.65 56.29">
  <defs>
    <style>
      .cls-1 {
        fill: #143245;
      }
    </style>
  </defs>
  <g id="Capa_1-2" data-name="Capa_1">
    <path class="cls-1" d="M103.64,44.58L83.56,5.8c-1.73-3.44-5.28-5.8-9.4-5.8h-.01c-4.11,0-7.66,2.36-9.4,5.8l-14.13,27.3c-1.58-2.81-4.09-5.01-7.13-6.2,3.39-2.45,5.6-6.44,5.6-10.95,0-5.22-2.97-9.75-7.3-11.99-3.82-2.01-8.18-3.15-12.81-3.15H7.86C3.51.82,0,4.33,0,8.67v39.33c0,4.34,3.51,7.85,7.86,7.85h22.85c4.4,0,8.6-.91,12.4-2.54l1.45-.7c.08-.04.16-.08.24-.12,1.37,2.28,3.86,3.81,6.72,3.81,3.18,0,5.92-1.89,7.15-4.61.62-1.44,2-2.45,3.64-2.53h23.68c1.64.08,3.03,1.1,3.64,2.53,1.23,2.72,3.98,4.61,7.15,4.61,4.34,0,7.85-3.52,7.85-7.84,0-1.41-.36-2.73-1.02-3.86"/>
  </g>
</svg>