<?xml version="1.0" encoding="UTF-8"?>
<!DOCTYPE svg PUBLIC "-//W3C//DTD SVG 1.1//EN" "http://www.w3.org/Graphics/SVG/1.1/DTD/svg11.dtd">
<!-- Creator: CorelDRAW 2018 (64 Bit) -->
<svg xmlns="http://www.w3.org/2000/svg" xml:space="preserve" width="691px" height="233px" version="1.1" shape-rendering="geometricPrecision" text-rendering="geometricPrecision" image-rendering="optimizeQuality" fill-rule="evenodd" clip-rule="evenodd"
viewBox="0 0 691 233"
 xmlns:xlink="http://www.w3.org/1999/xlink">
 <defs>
   <mask id="id0">
     <linearGradient id="id1" gradientUnits="userSpaceOnUse" x1="677.98" y1="105.17" x2="537.5" y2="105.16">
      <stop offset="0" stop-opacity="1" stop-color="white"/>
      <stop offset="1" stop-opacity="0" stop-color="white"/>
     </linearGradient>
    <rect fill="url(#id1)" x="11.84" y="10.24" width="667.32" height="212.52"/>
   </mask>
 </defs>
 <g id="Capa_x0020_1">
  <metadata id="CorelCorpID_0Corel-Layer"/>
  <path fill="#FEFEFE" d="M689.64 1.26l-573.05 0c-63.38,0 -115.23,51.86 -115.23,115.24l0 0c0,63.38 51.85,115.23 115.23,115.23l573.05 0 0 -230.47z"/>
  <path fill="#B6B5BA" fill-rule="nonzero" d="M688.46 2.44l-571.87 0c-31.36,0 -59.88,12.84 -80.55,33.51 -20.67,20.67 -33.5,49.19 -33.5,80.55 0,31.36 12.83,59.88 33.5,80.55 20.67,20.67 49.19,33.5 80.55,33.5l571.87 0 0 -228.11zm-571.87 -2.36l574.23 0 0 232.83 -574.23 0c-32.01,0 -61.12,-13.09 -82.22,-34.19 -21.1,-21.1 -34.19,-50.2 -34.19,-82.22 0,-32.02 13.09,-61.12 34.19,-82.22 21.1,-21.1 50.21,-34.2 82.22,-34.2z"/>
  <path fill="#E6E7E8" mask="url(#id0)" d="M677.98 11.42l-559.88 0c-57.8,0 -105.08,47.29 -105.08,105.08l0 0c0,57.79 47.28,105.08 105.08,105.08l559.88 0 0 -210.16z"/>
  <path fill="#73669E" d="M41.34 70.2c15.31,-26.4 43.02,-44.72 75.15,-47.01l0 26.26c-22.44,2.23 -41.7,15.27 -52.48,33.84l-22.67 -13.09z"/>
  <path fill="#5679B2" d="M41.3 165.08c-8.07,-13.94 -12.7,-30.14 -12.7,-47.41 0,-13.16 2.68,-25.69 7.53,-37.08l22.91 13.23c-2.76,7.43 -4.27,15.46 -4.27,23.85 0,12.51 3.35,24.23 9.2,34.32l-22.67 13.09z"/>
  <path fill="#95A54F" d="M117.18 212.2c-28.61,-1.84 -53.76,-16.37 -69.89,-38.02l22.89 -13.21c11.35,13.92 28.07,23.3 47,24.98l0 26.25z"/>
  <path fill="#EBD046" d="M200.73 172.29c-16.05,22.69 -41.82,38.02 -71.25,39.91l0 -26.25c19.75,-1.76 37.09,-11.89 48.45,-26.83l22.8 13.17z"/>
  <path fill="#CC9132" d="M208.52 76.21c6.11,12.52 9.53,26.59 9.53,41.46 0,16.39 -4.16,31.81 -11.49,45.26l-22.68 -13.1c5.1,-9.59 8,-20.54 8,-32.16 0,-10.1 -2.19,-19.7 -6.11,-28.33l22.75 -13.13z"/>
  <path fill="#B85B31" d="M130.16 23.19c31.05,2.21 57.95,19.39 73.55,44.35l-22.68 13.1c-11.04,-17.16 -29.51,-29.07 -50.87,-31.19l0 -26.26z"/>
  <circle fill="#B85B31" cx="140.71" cy="84.27" r="20.96"/>
  <circle fill="#EBD046" transform="matrix(-0.107751 0.18663 -0.18663 -0.107751 141.196 151.783)" r="97.27"/>
  <circle fill="#5679B2" transform="matrix(-0.107751 -0.18663 0.18663 -0.107751 83.3492 119.314)" r="97.27"/>
  <circle fill="#CC9132" cx="167.28" cy="117.08" r="13.09"/>
  <circle fill="#95A54F" transform="matrix(-0.0673086 0.116582 -0.116582 -0.0673086 99.4929 158.389)" r="97.27"/>
  <circle fill="#73669E" transform="matrix(-0.0673086 -0.116582 0.116582 -0.0673086 98.4802 79.895)" r="97.27"/>
  <polygon fill="#201816" fill-rule="nonzero" points="269.81,88.52 269.81,36.05 260.02,36.05 260.02,88.52 "/>
  <path id="1" fill="#201816" fill-rule="nonzero" d="M301.37 46.39c0,4.7 0.21,9.73 0.49,14.75 0.28,5.03 0.63,10.13 0.98,14.88l-0.14 0c-2.38,-8.52 -4.48,-14.74 -7,-20.81l-7.63 -19.16 -10.14 0 0 52.47 9.79 0 0 -9.85c0,-4.19 -0.21,-9.42 -0.49,-14.66 -0.28,-5.31 -0.7,-10.61 -1.05,-14.95l0.14 0c2.31,8.24 4.41,14.6 7,20.82l7.63 18.64 10.21 0 0 -52.47 -9.79 0 0 10.34z"/>
  <path id="2" fill="#201816" fill-rule="nonzero" d="M329.28 80.83l0 -37.09 6.44 0c5.87,0 7.13,4.9 7.13,17.29 0,15.18 -0.56,19.8 -9.3,19.8l-4.27 0zm8.33 7.69c2.45,0 5.1,-0.14 7.27,-1.4 8.05,-4.68 8.05,-16.65 8.05,-27 0,-8.68 -0.63,-14.49 -2.87,-18.13 -3.01,-4.89 -7.77,-5.94 -10.15,-5.94l-20.43 0 0 52.47 18.13 0z"/>
  <polygon id="3" fill="#201816" fill-rule="nonzero" points="370.35,88.52 370.35,36.05 360.55,36.05 360.55,88.52 "/>
  <path id="4" fill="#201816" fill-rule="nonzero" d="M399.67 69.84c-0.21,3.36 0.42,12.04 -4.98,12.04 -6.72,0 -7.06,-7.07 -7.06,-11.41l0 -14.55c0,-4.06 -0.63,-13.23 7.06,-13.23 4.83,0 4.48,6.3 4.9,9.66l9.66 0c0.07,-1.33 -0.07,-2.66 -0.21,-3.99 -0.7,-8.95 -5.6,-13.43 -14.35,-13.57 -15.67,0 -16.72,9.93 -17.14,23.3l0 7.48c0,14 1.05,24.21 17.14,24.21 10.94,0 14.16,-7.34 14.65,-16.93 0.07,-0.98 0.14,-2.03 0.21,-3.01l-9.88 0z"/>
  <path id="5" fill="#201816" fill-rule="nonzero" d="M422.25 88.52l2.59 -13.29 11.48 0 2.59 13.29 10.49 0 -11.89 -52.47 -13.23 0 -12.52 52.47 10.49 0zm7.07 -35.89c0.49,-2.45 0.7,-4.83 0.98,-7.28 0.07,-1.19 0.21,-2.38 0.35,-3.5l0.14 0c0.14,1.12 0.28,2.31 0.35,3.5 0.28,2.45 0.49,4.83 0.98,7.28l2.66 14.9 -8.4 0 2.94 -14.9z"/>
  <path id="6" fill="#201816" fill-rule="nonzero" d="M463.39 80.83l0 -37.09 6.44 0c5.87,0 7.13,4.9 7.13,17.29 0,15.18 -0.55,19.8 -9.3,19.8l-4.27 0zm8.33 7.69c2.45,0 5.1,-0.14 7.27,-1.4 8.05,-4.68 8.05,-16.65 8.05,-27 0,-8.68 -0.63,-14.49 -2.87,-18.13 -3.01,-4.89 -7.76,-5.94 -10.14,-5.94l-20.44 0 0 52.47 18.13 0z"/>
  <path id="7" fill="#201816" fill-rule="nonzero" d="M494.1 65.57c0,14 1.05,24.21 17.14,24.21 16.1,0 17.15,-10.21 17.15,-24.21l0 -7.48c-0.42,-13.37 -1.47,-23.3 -17.15,-23.3 -15.67,0 -16.72,9.93 -17.14,23.3l0 7.48zm10.08 -9.65c0,-4.06 -0.63,-13.23 7.06,-13.23 7.28,0 7.07,9.31 7.07,13.51l0 13.43c0,5.04 -0.07,12.25 -7.07,12.25 -6.71,0 -7.06,-7.07 -7.06,-11.41l0 -14.55z"/>
  <path id="8" fill="#201816" fill-rule="nonzero" d="M547.27 65.92c2.8,0 5.67,-0.07 8.33,0.7 3.36,0.98 3.29,5.39 3.36,8.61 0.07,3.5 -0.14,9.93 1.05,13.29l10.77 0 0 -0.98c-2.38,-1.54 -2.1,-14.41 -2.1,-16.58 0,-5.04 -1.74,-8.75 -7.55,-9.52l0 -0.13c6.58,-0.91 8.05,-6.93 8.05,-12.67 0,-9.66 -6.44,-12.59 -14.91,-12.59l-18.54 0 0 52.47 9.79 0 0 -22.6 1.75 0zm-1.75 -22.18l7.28 0c3.71,0.07 6.16,1.05 6.16,6.93 0,5.25 -2.52,7.35 -5.74,7.56l-7.7 0 0 -14.49z"/>
  <polygon id="9" fill="#201816" fill-rule="nonzero" points="604.43,88.52 604.43,80.83 586.66,80.83 586.66,64.66 603.03,64.66 603.03,56.97 586.66,56.97 586.66,43.74 604.43,43.74 604.43,36.05 576.87,36.05 576.87,88.52 "/>
  <path id="10" fill="#201816" fill-rule="nonzero" d="M640.11 52c-0.07,-5.18 0.35,-17.21 -15.25,-17.21 -10.35,0 -15.39,4.89 -15.39,13.85 0,2.8 0.91,5.67 2.52,8.05 3.99,5.24 10.35,8.11 15.46,12.1 2.52,1.75 3.92,3.85 3.92,6.93 0,3.99 -1.96,6.16 -6.09,6.16 -4.83,0 -6.37,-3.71 -6.16,-8.82l0 -3.08 -9.79 0 0 3.85c0,9.38 4.2,15.95 15.95,15.95 9.59,0 16.16,-5.18 16.16,-15.11 0,-4.55 -1.05,-7.7 -4.4,-10.99 -2.73,-2.65 -8.68,-6.57 -11.9,-8.6 -3.08,-1.96 -5.6,-3.5 -5.6,-7.49 0,-3.57 2.1,-4.9 5.39,-4.9 5.39,0 5.81,4.62 5.74,9.31l9.44 0z"/>
  <path fill="#201816" fill-rule="nonzero" d="M267.12 116.67l3.92 0c3.15,-0.14 7.42,-0.28 10.14,1.19 6.93,3.77 6.79,14.27 6.79,20.92 0,6.36 -0.35,17.91 -7.35,21.13 -2.37,1.12 -5.45,1.12 -8.04,1.12l-5.46 0 0 -44.36zm-4.55 48.42l10.29 0c8.74,0 14.41,-1.68 17.63,-10.71 2.17,-5.67 2.03,-13.57 2.03,-19.52 0,-5.25 -1.54,-13.09 -5.04,-17.28 -4.27,-4.62 -9.58,-4.97 -15.53,-4.97l-9.38 0 0 52.48z"/>
  <polygon id="1" fill="#201816" fill-rule="nonzero" points="327.59,165.09 327.59,161.03 308,161.03 308,139.62 325.49,139.62 325.49,135.56 308,135.56 308,116.67 327.24,116.67 327.24,112.61 303.45,112.61 303.45,165.09 "/>
  <path id="2" fill="#201816" fill-rule="nonzero" d="M358.66 116.67l3.92 0c3.15,-0.14 7.41,-0.28 10.14,1.19 6.93,3.77 6.79,14.27 6.79,20.92 0,6.36 -0.35,17.91 -7.35,21.13 -2.38,1.12 -5.45,1.12 -8.04,1.12l-5.46 0 0 -44.36zm-4.55 48.42l10.29 0c8.74,0 14.41,-1.68 17.63,-10.71 2.17,-5.67 2.03,-13.57 2.03,-19.52 0,-5.25 -1.54,-13.09 -5.04,-17.28 -4.27,-4.62 -9.58,-4.97 -15.53,-4.97l-9.38 0 0 52.48z"/>
  <polygon id="3" fill="#201816" fill-rule="nonzero" points="419.13,165.09 419.13,161.03 399.54,161.03 399.54,139.62 417.03,139.62 417.03,135.56 399.54,135.56 399.54,116.67 418.78,116.67 418.78,112.61 394.99,112.61 394.99,165.09 "/>
  <path id="4" fill="#201816" fill-rule="nonzero" d="M437.34 140.39c5.95,0 11.2,0.49 11.69,7.48 0.28,3.85 0.14,12.81 2.1,17.22l4.96 0 0 -0.63c-2.59,-1.4 -2.24,-10.64 -2.37,-13.16 -0.07,-6.58 -0.91,-11.26 -7,-12.8l0 -0.14c5.53,-1.19 7.69,-7.21 7.69,-12.32 0,-10.63 -6.57,-13.43 -16.16,-13.43l-10.14 0 0 52.48 4.54 0 0 -24.7 4.69 0zm-4.69 -23.72l6.58 0c7.14,0 10.64,2.03 10.64,9.72 0,9.38 -7.7,9.94 -9.24,9.94l-7.98 0 0 -19.66z"/>
  <polygon id="5" fill="#201816" fill-rule="nonzero" points="489.84,165.09 489.84,161.03 470.25,161.03 470.25,139.62 487.74,139.62 487.74,135.56 470.25,135.56 470.25,116.67 489.49,116.67 489.49,112.61 465.7,112.61 465.7,165.09 "/>
  <path id="6" fill="#201816" fill-rule="nonzero" d="M524.28 147.31c-0.21,6.44 -1.96,14.98 -9.79,14.98 -11.55,0 -11.13,-15.82 -11.13,-23.86 0,-7.07 -0.42,-23.02 10.64,-23.02 7.06,0 9.44,6.08 9.86,12.31l4.55 0c-0.07,-8.88 -4.83,-16.37 -14.27,-16.37 -13.93,0 -15.33,15.25 -15.33,26.03 0,11.12 0,28.96 15.19,28.96 10.49,0 15.04,-10.07 14.83,-19.03l-4.55 0z"/>
  <polygon id="7" fill="#201816" fill-rule="nonzero" points="544.94,165.09 544.94,138.99 565.23,138.99 565.23,165.09 569.78,165.09 569.78,112.61 565.23,112.61 565.23,134.93 544.94,134.93 544.94,112.61 540.39,112.61 540.39,165.09 "/>
  <path id="8" fill="#201816" fill-rule="nonzero" d="M596.18 166.34c14.76,0 15.6,-14.97 15.6,-26.37 0,-11.41 -0.07,-28.62 -15.46,-28.62 -13.93,0 -15.4,15.25 -15.4,26.03 0,11.12 0.07,28.96 15.26,28.96zm0.42 -4.05c-11.55,0 -11.13,-15.82 -11.13,-23.86 0,-7.56 0.07,-23.02 10.64,-23.02 11.19,0 11.12,15.81 11.12,23.51 0,7.41 0.42,23.37 -10.63,23.37z"/>
  <path id="9" fill="#201816" fill-rule="nonzero" d="M632.86 134.79c-4.69,-2.03 -6.37,-4.06 -6.37,-9.24 0,-5.73 3.08,-10.14 9.03,-10.14 5.87,0 9.3,4.06 9.02,9.86l4.41 0c0.21,-8.25 -5.18,-13.92 -13.36,-13.92 -8.54,0 -13.65,5.95 -13.65,14.48 0,8.4 5.04,11.55 12.11,14.35 6.01,2.38 11.75,3.63 11.75,11.54 0,6.51 -4.19,10.57 -10.56,10.57 -7.21,0 -9.94,-5.46 -9.87,-12.04l-4.48 0c-0.21,9.31 4.83,16.09 14.42,16.09 9.16,0 15.04,-5.73 15.04,-14.76 0,-9.51 -5.74,-11.89 -13.43,-15.11l-4.06 -1.68z"/>
  <path fill="#201816" fill-rule="nonzero" d="M263.34 185.91l1.69 0c1.35,-0.06 3.18,-0.12 4.35,0.51 2.98,1.63 2.92,6.14 2.92,8.99 0,2.73 -0.15,7.69 -3.15,9.08 -1.03,0.48 -2.35,0.48 -3.46,0.48l-2.35 0 0 -19.06zm-1.95 20.8l4.42 0c3.76,0 6.19,-0.72 7.57,-4.6 0.93,-2.43 0.87,-5.83 0.87,-8.38 0,-2.26 -0.66,-5.62 -2.16,-7.43 -1.83,-1.98 -4.12,-2.13 -6.67,-2.13l-4.03 0 0 22.54z"/>
  <polygon id="1" fill="#201816" fill-rule="nonzero" points="287.98,206.71 287.98,204.97 279.57,204.97 279.57,195.77 287.08,195.77 287.08,194.03 279.57,194.03 279.57,185.91 287.83,185.91 287.83,184.17 277.62,184.17 277.62,206.71 "/>
  <polygon id="2" fill="#201816" fill-rule="nonzero" points="300.3,184.17 297.86,184.17 297.86,206.71 299.81,206.71 299.81,187.42 299.88,187.42 308.23,206.71 310.6,206.71 310.6,184.17 308.65,184.17 308.65,203.52 308.59,203.52 "/>
  <polygon id="3" fill="#201816" fill-rule="nonzero" points="316.58,206.71 316.58,184.17 314.63,184.17 314.63,206.71 "/>
  <path id="4" fill="#201816" fill-rule="nonzero" d="M323.01 184.17l-2.43 0 0 22.54 1.95 0 0 -19.29 0.06 0 8.35 19.29 2.38 0 0 -22.54 -1.95 0 0 19.35 -0.06 0 -8.3 -19.35zm7.03 -2.25c1.06,-0.51 1.54,-1.69 1.66,-2.8l-1.15 0c-0.24,1.08 -0.57,1.74 -1.95,1.38 -1.14,-0.3 -2.43,-1.23 -3.64,-1.23 -1.5,0 -2.49,1.38 -2.7,2.92l1.11 0c0.24,-0.63 0.39,-1.14 1.05,-1.45 0.79,-0.21 1.81,0.31 2.5,0.61 1.05,0.51 1.95,0.9 3.12,0.57z"/>
  <path id="5" fill="#201816" fill-rule="nonzero" d="M339.48 198.03l2.97 -11.4 0.06 0 2.98 11.4 -6.01 0zm1.89 -13.86l-6.04 22.54 1.89 0 1.84 -6.94 6.85 0 1.77 6.94 1.98 0 -6.04 -22.54 -2.25 0z"/>
  <path id="6" fill="#201816" fill-rule="nonzero" d="M356 193.7c-2.01,-0.87 -2.73,-1.75 -2.73,-3.97 0,-2.46 1.32,-4.36 3.88,-4.36 2.52,0 3.99,1.75 3.87,4.24l1.9 0c0.09,-3.55 -2.23,-5.98 -5.74,-5.98 -3.67,0 -5.87,2.55 -5.87,6.22 0,3.61 2.17,4.96 5.2,6.16 2.59,1.02 5.05,1.56 5.05,4.96 0,2.79 -1.8,4.54 -4.53,4.54 -3.1,0 -4.27,-2.35 -4.24,-5.17l-1.93 0c-0.09,4 2.08,6.91 6.19,6.91 3.94,0 6.47,-2.46 6.47,-6.34 0,-4.09 -2.47,-5.11 -5.77,-6.49l-1.75 -0.72z"/>
  <path id="7" fill="#201816" fill-rule="nonzero" d="M366.67 210.8c1.35,-0.36 1.86,-1.14 2.01,-2.92 0.06,-0.72 0.06,-1.44 0.06,-2.13l0 -1.68 -2.07 0 0 2.64 0.9 0 0 0.39c0,0.9 0.09,2.16 -0.9,2.58l0 1.12z"/>
  <polygon id="8" fill="#201816" fill-rule="nonzero" points="382.38,184.17 379.94,184.17 379.94,206.71 381.9,206.71 381.9,187.42 381.96,187.42 390.31,206.71 392.69,206.71 392.69,184.17 390.73,184.17 390.73,203.52 390.67,203.52 "/>
  <polygon id="9" fill="#201816" fill-rule="nonzero" points="398.66,206.71 398.66,184.17 396.71,184.17 396.71,206.71 "/>
  <path id="10" fill="#201816" fill-rule="nonzero" d="M405.09 184.17l-2.43 0 0 22.54 1.95 0 0 -19.29 0.06 0 8.35 19.29 2.38 0 0 -22.54 -1.95 0 0 19.35 -0.06 0 -8.3 -19.35zm7.03 -2.25c1.06,-0.51 1.54,-1.69 1.66,-2.8l-1.14 0c-0.25,1.08 -0.58,1.74 -1.96,1.38 -1.14,-0.3 -2.43,-1.23 -3.64,-1.23 -1.5,0 -2.49,1.38 -2.7,2.92l1.11 0c0.24,-0.63 0.39,-1.14 1.05,-1.45 0.79,-0.21 1.81,0.31 2.5,0.61 1.05,0.51 1.95,0.9 3.12,0.57z"/>
  <path id="11" fill="#201816" fill-rule="nonzero" d="M425.34 207.25c6.35,0 6.71,-6.43 6.71,-11.33 0,-4.9 -0.03,-12.29 -6.65,-12.29 -5.98,0 -6.61,6.55 -6.61,11.18 0,4.78 0.03,12.44 6.55,12.44zm0.18 -1.74c-4.95,0 -4.77,-6.79 -4.77,-10.25 0,-3.25 0.03,-9.89 4.56,-9.89 4.81,0 4.78,6.79 4.78,10.1 0,3.19 0.18,10.04 -4.57,10.04z"/>
  <path id="12" fill="#201816" fill-rule="nonzero" d="M439.77 193.7c-2.02,-0.87 -2.74,-1.75 -2.74,-3.97 0,-2.46 1.32,-4.36 3.88,-4.36 2.52,0 4,1.75 3.88,4.24l1.89 0c0.09,-3.55 -2.22,-5.98 -5.74,-5.98 -3.67,0 -5.86,2.55 -5.86,6.22 0,3.61 2.16,4.96 5.2,6.16 2.58,1.02 5.05,1.56 5.05,4.96 0,2.79 -1.81,4.54 -4.54,4.54 -3.1,0 -4.27,-2.35 -4.24,-5.17l-1.92 0c-0.09,4 2.07,6.91 6.19,6.91 3.94,0 6.46,-2.46 6.46,-6.34 0,-4.09 -2.46,-5.11 -5.77,-6.49l-1.74 -0.72z"/>
  <polygon id="13" fill="#201816" fill-rule="nonzero" points="462.87,194.9 458.12,184.17 455.95,184.17 461.9,197.12 461.9,206.71 463.86,206.71 463.86,197.12 469.87,184.17 467.83,184.17 "/>
  <path id="14" fill="#201816" fill-rule="nonzero" d="M481.85 198.03l2.98 -11.4 0.05 0 2.98 11.4 -6.01 0zm1.89 -13.86l-6.04 22.54 1.9 0 1.83 -6.94 6.85 0 1.77 6.94 1.99 0 -6.04 -22.54 -2.26 0z"/>
  <path id="15" fill="#201816" fill-rule="nonzero" d="M496.15 185.91l1.69 0c1.35,-0.06 3.18,-0.12 4.35,0.51 2.98,1.63 2.92,6.14 2.92,8.99 0,2.73 -0.15,7.69 -3.16,9.08 -1.02,0.48 -2.34,0.48 -3.45,0.48l-2.35 0 0 -19.06zm-1.95 20.8l4.42 0c3.75,0 6.19,-0.72 7.57,-4.6 0.93,-2.43 0.87,-5.83 0.87,-8.38 0,-2.26 -0.66,-5.62 -2.16,-7.43 -1.84,-1.98 -4.12,-2.13 -6.68,-2.13l-4.02 0 0 22.54z"/>
  <path id="16" fill="#201816" fill-rule="nonzero" d="M516.71 207.25c6.34,0 6.7,-6.43 6.7,-11.33 0,-4.9 -0.03,-12.29 -6.65,-12.29 -5.98,0 -6.61,6.55 -6.61,11.18 0,4.78 0.03,12.44 6.56,12.44zm0.18 -1.74c-4.96,0 -4.78,-6.79 -4.78,-10.25 0,-3.25 0.03,-9.89 4.56,-9.89 4.81,0 4.78,6.79 4.78,10.1 0,3.19 0.18,10.04 -4.56,10.04z"/>
  <polygon id="17" fill="#201816" fill-rule="nonzero" points="537.32,206.71 537.32,204.97 528.96,204.97 528.96,184.17 527.01,184.17 527.01,206.71 "/>
  <polygon id="18" fill="#201816" fill-rule="nonzero" points="550.18,206.71 550.18,204.97 541.76,204.97 541.76,195.77 549.28,195.77 549.28,194.03 541.76,194.03 541.76,185.91 550.03,185.91 550.03,184.17 539.81,184.17 539.81,206.71 "/>
  <path id="19" fill="#201816" fill-rule="nonzero" d="M557.15 193.7c-2.02,-0.87 -2.74,-1.75 -2.74,-3.97 0,-2.46 1.33,-4.36 3.88,-4.36 2.52,0 4,1.75 3.88,4.24l1.89 0c0.09,-3.55 -2.22,-5.98 -5.74,-5.98 -3.67,0 -5.86,2.55 -5.86,6.22 0,3.61 2.16,4.96 5.2,6.16 2.58,1.02 5.05,1.56 5.05,4.96 0,2.79 -1.81,4.54 -4.54,4.54 -3.1,0 -4.27,-2.35 -4.24,-5.17l-1.92 0c-0.09,4 2.07,6.91 6.19,6.91 3.94,0 6.46,-2.46 6.46,-6.34 0,-4.09 -2.46,-5.11 -5.77,-6.49l-1.74 -0.72z"/>
  <path id="20" fill="#201816" fill-rule="nonzero" d="M578.33 199.08c-0.09,2.76 -0.84,6.43 -4.21,6.43 -4.95,0 -4.77,-6.79 -4.77,-10.25 0,-3.04 -0.18,-9.89 4.56,-9.89 3.04,0 4.06,2.62 4.24,5.29l1.95 0c-0.03,-3.81 -2.07,-7.03 -6.13,-7.03 -5.98,0 -6.58,6.55 -6.58,11.18 0,4.78 0,12.44 6.52,12.44 4.51,0 6.47,-4.33 6.37,-8.17l-1.95 0z"/>
  <polygon id="21" fill="#201816" fill-rule="nonzero" points="594.26,206.71 594.26,204.97 585.84,204.97 585.84,195.77 593.36,195.77 593.36,194.03 585.84,194.03 585.84,185.91 594.11,185.91 594.11,184.17 583.89,184.17 583.89,206.71 "/>
  <polygon id="22" fill="#201816" fill-rule="nonzero" points="599.3,184.17 596.87,184.17 596.87,206.71 598.82,206.71 598.82,187.42 598.88,187.42 607.24,206.71 609.61,206.71 609.61,184.17 607.66,184.17 607.66,203.52 607.6,203.52 "/>
  <polygon id="23" fill="#201816" fill-rule="nonzero" points="616.97,185.91 616.97,206.71 618.92,206.71 618.92,185.91 624.03,185.91 624.03,184.17 611.86,184.17 611.86,185.91 "/>
  <polygon id="24" fill="#201816" fill-rule="nonzero" points="636.65,206.71 636.65,204.97 628.24,204.97 628.24,195.77 635.75,195.77 635.75,194.03 628.24,194.03 628.24,185.91 636.5,185.91 636.5,184.17 626.28,184.17 626.28,206.71 "/>
  <path id="25" fill="#201816" fill-rule="nonzero" d="M643.62 193.7c-2.01,-0.87 -2.73,-1.75 -2.73,-3.97 0,-2.46 1.32,-4.36 3.87,-4.36 2.53,0 4,1.75 3.88,4.24l1.89 0c0.09,-3.55 -2.22,-5.98 -5.74,-5.98 -3.66,0 -5.86,2.55 -5.86,6.22 0,3.61 2.17,4.96 5.2,6.16 2.59,1.02 5.05,1.56 5.05,4.96 0,2.79 -1.8,4.54 -4.54,4.54 -3.09,0 -4.26,-2.35 -4.23,-5.17l-1.93 0c-0.09,4 2.08,6.91 6.19,6.91 3.94,0 6.47,-2.46 6.47,-6.34 0,-4.09 -2.47,-5.11 -5.78,-6.49l-1.74 -0.72z"/>
 </g>
</svg>
