<?xml version="1.0" encoding="UTF-8"?>
<svg id="Capa_2" xmlns="http://www.w3.org/2000/svg" viewBox="0 0 207.28 67.56">
  <defs>
    <style>
      .cls-1 {
        fill: #fff;
      }
    </style>
  </defs>
  <g id="Capa_1-2" data-name="Capa_1">
    <g>
      <path class="cls-1" d="M121.49,14.22h-4.26v4.13h4.33c1.18,0,2.33-.46,2.33-2.03,0-1.34-.85-2.1-2.4-2.1M117.23,7.9v3.52h4.33c1.04,0,1.87-.71,1.87-1.77s-.71-1.75-1.87-1.75h-4.33ZM121.97,21.13h-7.79V5.14h7.37c3.2,0,4.82,1.66,4.82,4.33,0,1.34-.58,2.42-1.57,3.13,1.36.71,2.19,2,2.19,3.82,0,2.86-1.94,4.7-5.02,4.7"/>
      <path class="cls-1" d="M138.91,21.13h-2.9v-1.08c-.74.85-1.77,1.36-3.02,1.36-2.81,0-4.68-2.1-4.68-5.21v-6.93h3.04v6.93c0,.67.23,2.33,2.21,2.33,1.36,0,2.3-1.01,2.3-2.33v-6.93h3.04v11.87Z"/>
      <path class="cls-1" d="M149.56,13.89c-.37-1.38-1.52-2.26-2.97-2.26s-2.49.87-2.93,2.26h5.9ZM143.61,16.38c.39,1.45,1.54,2.35,2.97,2.35,1.01,0,2-.44,2.51-1.38h3.25c-.69,2.42-2.79,4.05-5.74,4.05-3.34,0-6.08-2.76-6.08-6.2s2.74-6.24,6.08-6.24,6.41,2.72,5.97,7.42h-8.96Z"/>
      <path class="cls-1" d="M164.83,21.13h-3.04v-6.93c0-.69-.21-2.35-2.21-2.35-1.36,0-2.31,1.01-2.31,2.35v6.93h-3.04v-11.87h2.9v1.15c.76-.9,1.8-1.45,3.06-1.45,2.79,0,4.63,2.1,4.63,5.23v6.93Z"/>
      <path class="cls-1" d="M175.27,15.23c0-2.05-1.31-3.48-2.93-3.48s-2.92,1.43-2.92,3.48,1.31,3.39,2.92,3.39,2.93-1.38,2.93-3.39M178.33,15.21c0,3.55-2.7,6.2-5.99,6.2s-5.97-2.65-5.97-6.2,2.67-6.24,5.97-6.24,5.99,2.7,5.99,6.24"/>
      <path class="cls-1" d="M184.76,21.4c-3.02,0-5.25-1.59-5.62-4.15h3.09c.42,1.01,1.64,1.38,2.54,1.38,1.22,0,2.14-.37,2.14-1.06s-.41-.95-2.49-1.27c-2.12-.32-4.95-.9-4.95-3.55,0-1.87,1.64-3.8,5.07-3.8,2.72,0,4.75,1.47,5.14,3.71h-3.16c-.18-.55-.85-.99-1.98-.99-1.41,0-1.98.51-1.98.95,0,.62.87.83,2.35,1.06,2.95.49,5.07,1.13,5.07,3.71,0,2.35-2.17,4.01-5.21,4.01"/>
      <path class="cls-1" d="M133.61,27.77l-2.23,6.57h4.47l-2.23-6.57ZM130.43,37.17l-1.08,3.2h-3.23l5.58-15.99h3.85l5.58,15.99h-3.22l-1.08-3.2h-6.38Z"/>
      <path class="cls-1" d="M145.38,40.37h-3.04v-11.87h3.04v11.87ZM145.38,27.22h-3.04v-2.83h3.04v2.83Z"/>
      <path class="cls-1" d="M158.38,34.04h-3.04v-.6c0-.69-.21-2.35-2.21-2.35-1.36,0-2.31,1.01-2.31,2.35v6.93h-3.04v-11.87h2.9v1.15c.76-.9,1.8-1.45,3.06-1.45,2.79,0,4.63,2.1,4.63,5.23v.6Z"/>
      <path class="cls-1" d="M168.31,33.14c-.37-1.38-1.52-2.26-2.97-2.26s-2.49.87-2.93,2.26h5.9ZM162.37,35.63c.39,1.45,1.54,2.35,2.97,2.35,1.01,0,2-.44,2.51-1.38h3.25c-.69,2.42-2.79,4.05-5.74,4.05-3.34,0-6.08-2.76-6.08-6.2s2.74-6.24,6.08-6.24,6.41,2.72,5.97,7.42h-8.96Z"/>
      <path class="cls-1" d="M177.81,40.65c-3.02,0-5.25-1.59-5.62-4.15h3.09c.42,1.01,1.64,1.38,2.54,1.38,1.22,0,2.14-.37,2.14-1.06s-.41-.95-2.49-1.27c-2.12-.32-4.95-.9-4.95-3.55,0-1.87,1.64-3.8,5.07-3.8,2.72,0,4.75,1.47,5.14,3.71h-3.16c-.18-.55-.85-.99-1.98-.99-1.41,0-1.98.51-1.98.95,0,.62.87.83,2.35,1.06,2.95.49,5.07,1.13,5.07,3.71,0,2.35-2.17,4.01-5.21,4.01"/>
      <path class="cls-1" d="M141.12,59.9c-4.36,0-7.74-3.66-7.74-8.34s3.39-8.34,7.74-8.34c3.62,0,6.29,2.05,7.28,5.32h-3.29c-.71-1.45-2.14-2.53-3.99-2.53-2.63,0-4.7,2.53-4.7,5.55s2.07,5.58,4.7,5.58c1.82,0,3.27-1.13,3.99-2.58h3.27c-1.01,3.25-3.71,5.35-7.26,5.35"/>
      <path class="cls-1" d="M152.97,59.62h-3.04v-11.87h3.04v11.87ZM152.97,46.46h-3.04v-2.83h3.04v2.83Z"/>
      <path class="cls-1" d="M165.75,59.62h-2.9v-1.08c-.74.85-1.77,1.36-3.02,1.36-2.81,0-4.68-2.1-4.68-5.21v-6.93h3.04v6.93c0,.67.23,2.33,2.21,2.33,1.36,0,2.3-1.01,2.3-2.33v-6.93h3.04v11.87Z"/>
      <path class="cls-1" d="M173.47,50.31c-1.68,0-3.04,1.47-3.04,3.41s1.36,3.34,3.04,3.34,3.04-1.5,3.04-3.34-1.36-3.41-3.04-3.41M179.56,59.62h-2.9v-1.27c-.95.97-2.19,1.52-3.64,1.52-3.09,0-5.65-2.67-5.65-6.18s2.56-6.2,5.65-6.2c1.38,0,2.58.51,3.5,1.38v-6.41h3.04v17.14Z"/>
      <path class="cls-1" d="M187.34,50.31c-1.68,0-3.04,1.47-3.04,3.41s1.36,3.34,3.04,3.34,3.04-1.5,3.04-3.34-1.36-3.41-3.04-3.41M193.43,59.62h-2.9v-1.27c-.92.97-2.19,1.52-3.64,1.52-3.09,0-5.65-2.67-5.65-6.18s2.56-6.2,5.65-6.2c1.45,0,2.72.55,3.64,1.52v-1.27h2.9v11.87Z"/>
      <path class="cls-1" d="M201.19,50.31c-1.68,0-3.04,1.47-3.04,3.41s1.36,3.34,3.04,3.34,3.04-1.5,3.04-3.34-1.36-3.41-3.04-3.41M207.28,59.62h-2.9v-1.27c-.95.97-2.19,1.52-3.64,1.52-3.09,0-5.65-2.67-5.65-6.18s2.56-6.2,5.65-6.2c1.38,0,2.58.51,3.5,1.38v-6.41h3.04v17.14Z"/>
      <path class="cls-1" d="M124.38,53.51L100.29,6.96c-2.08-4.13-6.34-6.96-11.28-6.96h-.01c-4.94,0-9.2,2.83-11.28,6.96l-16.96,32.76c-1.9-3.37-4.91-6.01-8.55-7.44,4.07-2.94,6.72-7.73,6.72-13.14,0-6.27-3.56-11.7-8.77-14.39-4.59-2.41-9.82-3.77-15.37-3.77H9.43C4.21.98,0,5.2,0,10.4v47.2c0,5.2,4.21,9.42,9.43,9.42h27.43c5.29,0,10.32-1.09,14.89-3.05l1.74-.84c.1-.05.19-.1.29-.15,1.65,2.73,4.64,4.57,8.07,4.57,3.82,0,7.11-2.26,8.59-5.53.74-1.72,2.4-2.95,4.37-3.04h28.42c1.97.09,3.63,1.32,4.37,3.04,1.48,3.27,4.77,5.53,8.58,5.53,5.21,0,9.42-4.22,9.42-9.42,0-1.69-.44-3.27-1.22-4.64"/>
    </g>
  </g>
</svg>