<?xml version="1.0" encoding="UTF-8"?>
<svg id="Capa_2" xmlns="http://www.w3.org/2000/svg" viewBox="0 0 284 76.77">
  <defs>
    <style>
      .cls-1 {
        fill: #1a9ad7;
      }

      .cls-2 {
        fill: #05528d;
      }
    </style>
  </defs>
  <g id="Capa_1-2" data-name="Capa_1">
    <g id="Logo_IDECBA_desktop">
      <g>
        <g>
          <path class="cls-2" d="M0,66.07c0-.72.57-1.29,1.29-1.29s1.29.57,1.29,1.29v9.32c0,.72-.57,1.29-1.29,1.29S0,76.1,0,75.38v-9.32Z"/>
          <path class="cls-2" d="M4.66,66.17c0-.72.57-1.29,1.29-1.29h3.27c3.67,0,6.21,2.52,6.21,5.81v.03c0,3.29-2.54,5.84-6.21,5.84h-3.27c-.72,0-1.29-.57-1.29-1.29v-9.11ZM9.22,74.25c2.1,0,3.52-1.42,3.52-3.49v-.03c0-2.07-1.42-3.52-3.52-3.52h-1.99v7.04h1.99Z"/>
          <path class="cls-2" d="M16.88,75.28v-9.11c0-.72.57-1.29,1.29-1.29h6.48c.63,0,1.15.52,1.15,1.15s-.52,1.14-1.15,1.14h-5.21v2.37h4.46c.63,0,1.15.52,1.15,1.15s-.52,1.14-1.15,1.14h-4.46v2.45h5.29c.63,0,1.15.52,1.15,1.15s-.52,1.14-1.15,1.14h-6.56c-.72,0-1.29-.57-1.29-1.29Z"/>
          <path class="cls-2" d="M26.71,70.76v-.03c0-3.32,2.5-6.04,6.09-6.04,1.75,0,2.94.47,3.91,1.19.27.2.5.57.5,1.02,0,.7-.57,1.25-1.27,1.25-.35,0-.58-.13-.77-.25-.72-.53-1.47-.83-2.39-.83-1.97,0-3.39,1.64-3.39,3.64v.03c0,2,1.39,3.67,3.39,3.67,1.09,0,1.8-.33,2.54-.92.2-.17.47-.28.77-.28.65,0,1.2.53,1.2,1.19,0,.4-.2.72-.43.92-1.05.92-2.29,1.47-4.16,1.47-3.44,0-5.99-2.65-5.99-6.01Z"/>
          <path class="cls-1" d="M38.72,66.17c0-.72.57-1.29,1.29-1.29h4.14c1.34,0,2.39.37,3.05,1.03.53.53.8,1.19.8,1.99v.03c0,1.32-.7,2.05-1.54,2.52,1.35.52,2.19,1.3,2.19,2.87v.03c0,2.14-1.74,3.21-4.37,3.21h-4.27c-.72,0-1.29-.57-1.29-1.29v-9.11ZM43.59,69.61c1.14,0,1.85-.37,1.85-1.24v-.03c0-.77-.6-1.2-1.69-1.2h-2.54v2.47h2.37ZM44.28,74.32c1.14,0,1.82-.4,1.82-1.27v-.03c0-.78-.58-1.27-1.9-1.27h-2.97v2.57h3.05Z"/>
          <path class="cls-1" d="M49.28,74.92l4.07-9.2c.28-.63.8-1.02,1.5-1.02h.15c.7,0,1.2.38,1.49,1.02l4.07,9.2c.08.18.13.35.13.52,0,.68-.53,1.24-1.22,1.24-.6,0-1-.35-1.24-.88l-.78-1.84h-5.14l-.82,1.92c-.22.5-.65.8-1.19.8-.67,0-1.19-.53-1.19-1.2,0-.18.07-.37.15-.55ZM56.51,71.68l-1.62-3.86-1.62,3.86h3.24Z"/>
        </g>
        <g>
          <path class="cls-2" d="M21.93,19.16h-5.89c-.41,0-.74.33-.74.74v13.32c0,.1.04.2.11.27l2.5,2.44c.14.14.37.14.52,0l4.13-4.03c.07-.07.11-.17.11-.27v-11.73c0-.41-.33-.74-.74-.74Z"/>
          <path class="cls-2" d="M44.67,15.33h-5.89c-.41,0-.74.33-.74.74v4.96c0,.13.07.25.19.32.3.18.59.39.85.65l5.2,5.07c.14.14.37.14.52,0l.51-.5c.07-.07.11-.17.11-.27v-10.23c0-.41-.33-.74-.74-.74Z"/>
          <path class="cls-2" d="M44.98,38.06c-1.3.13-2.64-.29-3.63-1.26l-2.69-2.62c-.24-.23-.63-.06-.63.27v18.91c0,.41.33.74.74.74h5.89c.41,0,.74-.33.74-.74v-14.93c0-.23-.2-.39-.42-.37Z"/>
          <path class="cls-2" d="M22.04,44.97l-.7.68c-1.49,1.45-3.76,1.67-5.49.66-.25-.15-.56.03-.56.31v6.73c0,.41.33.74.74.74h5.89c.41,0,.74-.33.74-.74v-8.12c0-.33-.4-.5-.63-.27Z"/>
        </g>
        <g>
          <path class="cls-1" d="M32.71,22c.34-.34.73-.6,1.15-.81.13-.06.22-.19.21-.34l-.13-11.13v-1.3c-.01-.23-.08-.46-.22-.66l-2.23-3.27c-.24-.35-.65-.52-1.07-.53-.02,0-.04,0-.07,0-.02,0-.04,0-.07,0-.42.01-.83.18-1.07.53l-2.23,3.27c-.14.2-.21.43-.21.66v1.3s-.22,17.39-.22,17.39c0,.33.39.5.63.27l5.53-5.38Z"/>
          <path class="cls-1" d="M26.39,40.89l-.15,12.46c0,.41.33.75.74.75h6.73c.41,0,.75-.34.74-.75l-.23-19.38c0-.33-.4-.49-.63-.26l-7.1,6.91c-.07.07-.11.16-.11.26Z"/>
          <path class="cls-2" d="M59.37,58.08H2.68v-13.09l1.34-1.29h0s1.48-1.44,1.48-1.44h0s4.92-4.8,4.92-4.8l6.44,6.27c.72.7,1.89.7,2.61,0l16.16-15.74c.14-.14.37-.14.52,0l7.07,6.89c.72.7,1.89.7,2.61,0l11.14-10.85v3.78c0,.99.83,1.8,1.85,1.8s1.85-.81,1.85-1.8v-8.13s0-.04,0-.06c0-.08-.01-.16-.03-.25,0-.03,0-.06-.02-.09-.02-.1-.05-.2-.09-.3,0,0,0,0,0,0,0-.02-.02-.04-.03-.05-.04-.08-.08-.15-.13-.23-.02-.03-.04-.06-.06-.08-.04-.06-.09-.12-.15-.17-.02-.02-.04-.05-.07-.07-.07-.07-.14-.12-.22-.18,0,0-.02-.01-.03-.02-.09-.06-.18-.1-.28-.15-.03-.01-.06-.02-.09-.04-.07-.03-.15-.05-.22-.07-.03,0-.07-.02-.1-.02-.11-.02-.22-.03-.33-.03h-8.74c-1.02,0-1.85.81-1.85,1.8s.83,1.8,1.85,1.8h4.28l-9.57,9.33c-.14.14-.37.14-.52,0l-7.07-6.89c-.72-.7-1.9-.7-2.61,0l-16.16,15.74c-.14.14-.37.14-.52,0l-6.18-6.02c-.72-.7-1.9-.7-2.61,0l-6.44,6.27V1.31c0-.73-.6-1.31-1.34-1.31S0,.59,0,1.31v58.08c0,.73.6,1.31,1.34,1.31h58.03c.74,0,1.34-.59,1.34-1.31s-.6-1.31-1.34-1.31Z"/>
        </g>
      </g>
      <rect class="cls-2" x="85.5" y="0" width="1.11" height="76.77"/>
      <g>
        <path class="cls-2" d="M113.4,24.45v-9.75h1.35v9.75h-1.35Z"/>
        <path class="cls-2" d="M116.96,24.45v-7.48h1.01l.11,1.12h.1c.2-.3.42-.55.68-.74.25-.19.53-.33.84-.42.31-.09.64-.14.99-.14.47,0,.89.08,1.24.24.36.16.64.42.84.78.2.36.31.85.31,1.46v5.16h-1.25v-4.99c0-.31-.04-.57-.12-.77s-.19-.36-.33-.47c-.14-.11-.3-.19-.5-.24s-.41-.07-.65-.07c-.35,0-.68.09-1,.26-.31.17-.56.42-.75.74-.18.32-.28.71-.28,1.15v4.39h-1.25Z"/>
        <path class="cls-2" d="M127.58,24.62c-.51,0-.96-.05-1.35-.16-.39-.1-.71-.26-.97-.46-.26-.2-.45-.44-.58-.71-.13-.27-.2-.59-.2-.94v-.14s0-.08.01-.11h1.24s-.01.07-.01.1v.09c0,.33.1.59.26.78.17.19.4.32.69.4s.62.11.98.11c.31,0,.6-.04.87-.12s.48-.2.63-.37c.16-.17.23-.38.23-.63,0-.31-.1-.55-.31-.72-.2-.17-.47-.3-.8-.39-.33-.09-.68-.19-1.04-.3-.3-.09-.61-.18-.91-.28-.3-.1-.58-.23-.82-.38-.24-.15-.44-.35-.58-.59-.15-.24-.22-.55-.22-.92,0-.33.07-.63.21-.88s.33-.47.59-.65c.26-.18.57-.31.93-.41.36-.09.77-.14,1.22-.14.47,0,.89.05,1.24.16s.65.25.89.44c.24.19.41.41.53.65.11.24.17.5.17.77v.16c0,.05,0,.09-.01.12h-1.22v-.16c0-.19-.05-.37-.15-.55-.1-.18-.27-.32-.51-.43-.24-.11-.58-.16-1-.16-.27,0-.51.02-.71.06-.2.04-.36.11-.5.2-.13.09-.23.19-.3.31-.07.12-.1.25-.1.41,0,.25.08.44.24.57s.38.24.65.33c.27.09.56.18.87.28.33.09.67.19,1.02.29.35.1.66.23.95.38s.52.36.7.62c.18.26.26.6.26,1.03,0,.4-.08.74-.23,1.04s-.37.54-.65.72c-.28.19-.61.33-.98.42s-.78.14-1.23.14Z"/>
        <path class="cls-2" d="M133.96,24.62c-.39,0-.69-.07-.91-.22-.22-.15-.37-.34-.47-.58-.1-.24-.14-.5-.14-.77v-5.02h-.97v-1.05h1l.23-2.09h1v2.09h1.41v1.05h-1.41v4.83c0,.24.04.41.13.53.09.12.25.18.48.18h.8v.82c-.1.05-.21.09-.34.11-.13.03-.27.05-.41.08-.14.02-.27.04-.39.04Z"/>
        <path class="cls-2" d="M136.44,15.56v-1.39h1.25v1.39h-1.25ZM136.44,24.45v-7.48h1.25v7.48h-1.25Z"/>
        <path class="cls-2" d="M141.38,24.62c-.39,0-.69-.07-.91-.22-.22-.15-.37-.34-.47-.58-.1-.24-.14-.5-.14-.77v-5.02h-.97v-1.05h1l.23-2.09h1v2.09h1.41v1.05h-1.41v4.83c0,.24.04.41.13.53.09.12.25.18.48.18h.8v.82c-.1.05-.21.09-.34.11-.13.03-.27.05-.41.08-.14.02-.27.04-.39.04Z"/>
        <path class="cls-2" d="M146.18,24.62c-.72,0-1.3-.18-1.73-.55-.44-.37-.65-1.01-.65-1.93v-5.16h1.25v4.99c0,.31.04.57.11.77.08.2.18.36.33.47.14.11.31.19.5.24s.41.07.63.07c.36,0,.69-.09,1-.26.3-.17.55-.42.75-.75.19-.33.29-.71.29-1.14v-4.39h1.25v7.48h-1.01l-.11-1.12h-.1c-.2.3-.42.55-.68.74-.25.19-.53.33-.84.42s-.64.14-.99.14Z"/>
        <path class="cls-2" d="M153.6,24.62c-.39,0-.69-.07-.91-.22-.22-.15-.37-.34-.47-.58-.1-.24-.14-.5-.14-.77v-5.02h-.97v-1.05h1l.23-2.09h1v2.09h1.41v1.05h-1.41v4.83c0,.24.04.41.13.53.09.12.25.18.48.18h.8v.82c-.1.05-.21.09-.34.11-.13.03-.27.05-.41.08-.14.02-.27.04-.39.04Z"/>
        <path class="cls-2" d="M159.14,24.62c-.76,0-1.4-.14-1.91-.42-.52-.28-.91-.71-1.18-1.29-.27-.58-.4-1.31-.4-2.2s.13-1.64.4-2.21c.27-.57.66-1,1.18-1.28.52-.28,1.15-.42,1.91-.42s1.4.14,1.91.42c.52.28.91.71,1.17,1.28.27.57.4,1.31.4,2.21s-.13,1.63-.4,2.2c-.27.58-.66,1.01-1.17,1.29-.52.28-1.15.42-1.91.42ZM159.14,23.57c.48,0,.89-.09,1.21-.28s.57-.49.73-.89c.17-.4.25-.91.25-1.53v-.31c0-.63-.08-1.14-.25-1.54-.17-.4-.41-.69-.73-.88s-.73-.28-1.21-.28-.89.09-1.22.28-.57.48-.73.88c-.16.4-.24.91-.24,1.54v.31c0,.62.08,1.13.24,1.53.16.4.4.7.73.89s.73.28,1.22.28Z"/>
        <path class="cls-2" d="M169.69,24.62c-.62,0-1.14-.14-1.59-.41-.44-.27-.78-.7-1.02-1.29-.24-.58-.36-1.34-.36-2.27s.12-1.61.37-2.18c.25-.57.59-.99,1.02-1.27.44-.27.94-.41,1.52-.41.33,0,.64.04.92.11s.54.19.76.36c.22.16.42.37.59.64h.08v-3.74h1.25v10.28h-1.01l-.11-1.07h-.1c-.26.42-.59.73-1,.93-.41.2-.85.31-1.34.31ZM169.99,23.52c.47,0,.86-.1,1.15-.31s.51-.51.65-.91c.14-.4.21-.89.21-1.48v-.23c0-.51-.05-.94-.16-1.29-.1-.35-.25-.63-.43-.84-.18-.21-.39-.36-.63-.44-.24-.09-.49-.13-.75-.13-.46,0-.84.09-1.14.28s-.51.47-.65.87c-.14.39-.21.9-.21,1.53v.3c0,.64.08,1.16.23,1.56.15.39.37.68.66.85.29.17.65.26,1.07.26Z"/>
        <path class="cls-2" d="M178.2,24.62c-.74,0-1.36-.14-1.87-.42-.51-.28-.89-.71-1.15-1.29-.26-.58-.39-1.31-.39-2.2s.13-1.64.39-2.21c.26-.57.65-1,1.16-1.28.51-.28,1.15-.42,1.92-.42.7,0,1.29.14,1.76.41.47.27.83.67,1.07,1.21.24.54.36,1.21.36,2.01v.6h-5.37c.02.6.11,1.09.26,1.47.16.38.39.66.7.84s.71.26,1.18.26c.32,0,.6-.04.85-.12.24-.08.45-.2.61-.35.17-.15.29-.33.38-.54.09-.21.13-.44.14-.68h1.22c-.01.4-.09.77-.23,1.1s-.35.62-.63.86c-.27.24-.61.42-1.01.55-.4.13-.85.2-1.36.2ZM176.11,20.08h4.05c0-.42-.05-.77-.14-1.05-.1-.28-.23-.52-.41-.7-.18-.18-.38-.31-.61-.39-.23-.08-.5-.12-.79-.12-.44,0-.81.08-1.11.24-.3.16-.54.41-.7.74-.16.33-.26.76-.3,1.28Z"/>
        <path class="cls-2" d="M186.22,24.45v-9.75h7.51v1.17h-6.16v3.01h5.53v1.17h-5.53v3.24h6.24v1.17h-7.59Z"/>
        <path class="cls-2" d="M198.22,24.62c-.51,0-.96-.05-1.35-.16-.39-.1-.71-.26-.97-.46-.26-.2-.45-.44-.58-.71-.13-.27-.2-.59-.2-.94v-.14s0-.08.01-.11h1.24s-.01.07-.01.1v.09c0,.33.1.59.26.78.17.19.4.32.69.4s.62.11.98.11c.31,0,.6-.04.87-.12s.48-.2.63-.37c.16-.17.23-.38.23-.63,0-.31-.1-.55-.31-.72-.2-.17-.47-.3-.8-.39-.33-.09-.68-.19-1.04-.3-.3-.09-.61-.18-.91-.28-.3-.1-.58-.23-.82-.38-.24-.15-.44-.35-.58-.59-.15-.24-.22-.55-.22-.92,0-.33.07-.63.21-.88s.33-.47.59-.65c.26-.18.57-.31.93-.41.36-.09.77-.14,1.22-.14.47,0,.89.05,1.24.16s.65.25.89.44c.24.19.41.41.53.65.11.24.17.5.17.77v.16c0,.05,0,.09-.01.12h-1.22v-.16c0-.19-.05-.37-.15-.55-.1-.18-.27-.32-.51-.43-.24-.11-.58-.16-1-.16-.27,0-.51.02-.71.06-.2.04-.36.11-.5.2-.13.09-.23.19-.3.31-.07.12-.1.25-.1.41,0,.25.08.44.24.57s.38.24.65.33c.27.09.56.18.87.28.33.09.67.19,1.02.29.35.1.66.23.95.38s.52.36.7.62c.18.26.26.6.26,1.03,0,.4-.08.74-.23,1.04s-.37.54-.65.72c-.28.19-.61.33-.98.42s-.78.14-1.23.14Z"/>
        <path class="cls-2" d="M204.6,24.62c-.39,0-.69-.07-.91-.22-.22-.15-.37-.34-.47-.58-.1-.24-.14-.5-.14-.77v-5.02h-.97v-1.05h1l.23-2.09h1v2.09h1.41v1.05h-1.41v4.83c0,.24.04.41.13.53.09.12.25.18.48.18h.8v.82c-.1.05-.21.09-.34.11-.13.03-.27.05-.41.08-.14.02-.27.04-.39.04Z"/>
        <path class="cls-2" d="M208.95,24.62c-.27,0-.55-.03-.82-.1-.28-.07-.53-.18-.77-.33-.24-.15-.43-.36-.57-.63s-.21-.61-.21-1.02c0-.51.12-.93.37-1.27s.59-.59,1.03-.77.96-.31,1.57-.38c.61-.07,1.27-.11,1.98-.11v-.85c0-.27-.05-.51-.14-.71-.09-.2-.26-.35-.5-.46-.24-.11-.59-.16-1.03-.16s-.77.05-1.02.16c-.25.11-.43.25-.53.42-.1.17-.15.36-.15.57v.21h-1.21s-.01-.09-.01-.14v-.17c0-.46.13-.84.38-1.14.25-.31.6-.54,1.06-.7.45-.16.98-.23,1.56-.23.63,0,1.15.09,1.57.27.42.18.74.44.95.77.21.33.32.73.32,1.19v4.05c0,.18.04.31.13.38.09.07.19.11.31.11h.55v.82c-.13.06-.28.11-.44.15s-.35.06-.55.06c-.25,0-.45-.05-.61-.15-.16-.1-.28-.24-.37-.41-.09-.18-.14-.37-.17-.59h-.1c-.17.24-.39.44-.65.62-.26.18-.55.31-.87.41-.32.09-.67.14-1.05.14ZM209.27,23.57c.3,0,.59-.05.86-.14.27-.09.51-.23.72-.41.21-.18.37-.39.5-.63.12-.25.18-.52.18-.81v-.63c-.77,0-1.42.04-1.96.13s-.96.24-1.24.46-.43.53-.43.92c0,.26.06.46.17.63.11.16.27.28.48.36.21.08.45.12.73.12Z"/>
        <path class="cls-2" d="M217.37,24.62c-.62,0-1.14-.14-1.59-.41-.44-.27-.78-.7-1.02-1.29-.24-.58-.36-1.34-.36-2.27s.12-1.61.37-2.18c.25-.57.59-.99,1.02-1.27.44-.27.94-.41,1.52-.41.33,0,.64.04.92.11s.54.19.76.36c.22.16.42.37.59.64h.08v-3.74h1.25v10.28h-1.01l-.11-1.07h-.1c-.26.42-.59.73-1,.93-.41.2-.85.31-1.34.31ZM217.67,23.52c.47,0,.86-.1,1.15-.31s.51-.51.65-.91c.14-.4.21-.89.21-1.48v-.23c0-.51-.05-.94-.16-1.29-.1-.35-.25-.63-.43-.84-.18-.21-.39-.36-.63-.44-.24-.09-.49-.13-.75-.13-.46,0-.84.09-1.14.28s-.51.47-.65.87c-.14.39-.21.9-.21,1.53v.3c0,.64.08,1.16.23,1.56.15.39.37.68.66.85.29.17.65.26,1.07.26Z"/>
        <path class="cls-2" d="M222.76,16.05l1.24-1.88h1.41v.04s-1.55,1.83-1.55,1.83h-1.1ZM222.89,24.45v-7.48h1.25v7.48h-1.25Z"/>
        <path class="cls-2" d="M228.7,24.62c-.51,0-.96-.05-1.35-.16-.39-.1-.71-.26-.97-.46-.26-.2-.45-.44-.58-.71-.13-.27-.2-.59-.2-.94v-.14s0-.08.01-.11h1.24s-.01.07-.01.1v.09c0,.33.1.59.26.78.17.19.4.32.69.4s.62.11.98.11c.31,0,.6-.04.87-.12s.48-.2.63-.37c.16-.17.23-.38.23-.63,0-.31-.1-.55-.31-.72-.2-.17-.47-.3-.8-.39-.33-.09-.68-.19-1.04-.3-.3-.09-.61-.18-.91-.28-.3-.1-.58-.23-.82-.38-.24-.15-.44-.35-.58-.59-.15-.24-.22-.55-.22-.92,0-.33.07-.63.21-.88s.33-.47.59-.65c.26-.18.57-.31.93-.41.36-.09.77-.14,1.22-.14.47,0,.89.05,1.24.16s.65.25.89.44c.24.19.41.41.53.65.11.24.17.5.17.77v.16c0,.05,0,.09-.01.12h-1.22v-.16c0-.19-.05-.37-.15-.55-.1-.18-.27-.32-.51-.43-.24-.11-.58-.16-1-.16-.27,0-.51.02-.71.06-.2.04-.36.11-.5.2-.13.09-.23.19-.3.31-.07.12-.1.25-.1.41,0,.25.08.44.24.57s.38.24.65.33c.27.09.56.18.87.28.33.09.67.19,1.02.29.35.1.66.23.95.38s.52.36.7.62c.18.26.26.6.26,1.03,0,.4-.08.74-.23,1.04s-.37.54-.65.72c-.28.19-.61.33-.98.42s-.78.14-1.23.14Z"/>
        <path class="cls-2" d="M235.09,24.62c-.39,0-.69-.07-.91-.22-.22-.15-.37-.34-.47-.58-.1-.24-.14-.5-.14-.77v-5.02h-.97v-1.05h1l.23-2.09h1v2.09h1.41v1.05h-1.41v4.83c0,.24.04.41.13.53.09.12.25.18.48.18h.8v.82c-.1.05-.21.09-.34.11-.13.03-.27.05-.41.08-.14.02-.27.04-.39.04Z"/>
        <path class="cls-2" d="M237.56,15.56v-1.39h1.25v1.39h-1.25ZM237.56,24.45v-7.48h1.25v7.48h-1.25Z"/>
        <path class="cls-2" d="M243.6,24.62c-.72,0-1.33-.14-1.81-.42s-.86-.71-1.11-1.29c-.25-.58-.38-1.32-.38-2.2s.13-1.61.38-2.19c.25-.58.63-1.01,1.12-1.29.5-.28,1.11-.43,1.84-.43.51,0,.95.07,1.33.2.37.13.68.33.93.58s.43.56.55.92c.12.36.18.77.18,1.24h-1.27c0-.44-.06-.79-.18-1.07-.12-.28-.31-.49-.56-.63-.26-.14-.59-.21-1.01-.21s-.78.09-1.08.28c-.3.18-.54.48-.7.87-.16.4-.24.92-.24,1.58v.3c0,.62.08,1.13.23,1.54s.39.71.69.9c.3.19.67.28,1.11.28s.77-.08,1.03-.23c.26-.15.45-.37.57-.65.12-.28.18-.63.18-1.02h1.22c0,.42-.06.81-.18,1.17-.12.36-.3.67-.55.94-.25.27-.56.47-.94.62s-.83.22-1.36.22Z"/>
        <path class="cls-2" d="M250.02,24.62c-.27,0-.55-.03-.82-.1-.28-.07-.53-.18-.77-.33-.24-.15-.43-.36-.57-.63s-.21-.61-.21-1.02c0-.51.12-.93.37-1.27s.59-.59,1.03-.77.96-.31,1.57-.38c.61-.07,1.27-.11,1.98-.11v-.85c0-.27-.05-.51-.14-.71-.09-.2-.26-.35-.5-.46-.24-.11-.59-.16-1.03-.16s-.77.05-1.02.16c-.25.11-.43.25-.53.42-.1.17-.15.36-.15.57v.21h-1.21s-.01-.09-.01-.14v-.17c0-.46.13-.84.38-1.14.25-.31.6-.54,1.06-.7.45-.16.98-.23,1.56-.23.63,0,1.15.09,1.57.27.42.18.74.44.95.77.21.33.32.73.32,1.19v4.05c0,.18.04.31.13.38.09.07.19.11.31.11h.55v.82c-.13.06-.28.11-.44.15s-.35.06-.55.06c-.25,0-.45-.05-.61-.15-.16-.1-.28-.24-.37-.41-.09-.18-.14-.37-.17-.59h-.1c-.17.24-.39.44-.65.62-.26.18-.55.31-.87.41-.32.09-.67.14-1.05.14ZM250.33,23.57c.3,0,.59-.05.86-.14.27-.09.51-.23.72-.41.21-.18.37-.39.5-.63.12-.25.18-.52.18-.81v-.63c-.77,0-1.42.04-1.96.13s-.96.24-1.24.46-.43.53-.43.92c0,.26.06.46.17.63.11.16.27.28.48.36.21.08.45.12.73.12Z"/>
        <path class="cls-2" d="M113.8,43.81c-.23,0-.42-.02-.59-.05-.17-.03-.28-.06-.33-.06v-.91h.63c.23,0,.45-.05.67-.14.22-.1.42-.26.61-.48.19-.23.35-.54.48-.94l-2.9-7.48h1.31l1.49,3.85c.07.18.14.4.23.66.09.26.18.53.27.8s.16.52.22.73h.09c.04-.15.08-.32.14-.51.06-.19.12-.39.18-.59.06-.2.12-.4.18-.58.06-.18.11-.35.15-.49l1.27-3.87h1.26l-2.53,7.27c-.14.41-.3.78-.47,1.13-.17.35-.36.64-.57.89-.21.25-.46.44-.75.58-.29.14-.64.21-1.04.21Z"/>
        <path class="cls-2" d="M127.71,41.4c-1,0-1.84-.18-2.53-.55-.69-.36-1.22-.92-1.59-1.66-.37-.74-.55-1.69-.55-2.84,0-1.7.41-2.96,1.24-3.8.82-.83,1.97-1.25,3.44-1.25.83,0,1.57.14,2.22.41.64.27,1.15.68,1.51,1.22.36.55.55,1.23.55,2.05h-1.37c0-.57-.12-1.04-.36-1.41-.24-.37-.58-.65-1.02-.83-.44-.18-.95-.28-1.54-.28-.68,0-1.27.13-1.76.4s-.87.68-1.12,1.23c-.26.55-.38,1.27-.38,2.14v.3c0,.86.13,1.57.38,2.11.26.54.63.94,1.12,1.2s1.08.38,1.77.38c.61,0,1.13-.09,1.57-.27.44-.18.78-.46,1.02-.83.24-.37.36-.85.36-1.41h1.32c0,.84-.19,1.54-.56,2.08s-.88.94-1.53,1.21c-.64.27-1.38.4-2.2.4Z"/>
        <path class="cls-2" d="M136.64,41.4c-.74,0-1.36-.14-1.87-.42-.51-.28-.89-.71-1.15-1.29-.26-.58-.39-1.31-.39-2.2s.13-1.64.39-2.21c.26-.57.65-1,1.16-1.28.51-.28,1.15-.42,1.92-.42.7,0,1.29.14,1.76.41.47.27.83.67,1.07,1.21.24.54.36,1.21.36,2.01v.6h-5.37c.02.6.11,1.09.26,1.47.16.38.39.66.7.84s.71.26,1.18.26c.32,0,.6-.04.85-.12.24-.08.45-.2.61-.35.17-.15.29-.33.38-.54.09-.21.13-.44.14-.68h1.22c-.01.4-.09.77-.23,1.1s-.35.62-.63.86c-.27.24-.61.42-1.01.55s-.85.2-1.36.2ZM134.55,36.86h4.05c0-.42-.05-.77-.14-1.05-.1-.28-.23-.52-.41-.7-.18-.18-.38-.31-.61-.39-.23-.08-.5-.12-.79-.12-.44,0-.81.08-1.11.24-.3.16-.54.41-.7.74-.16.33-.26.76-.3,1.28Z"/>
        <path class="cls-2" d="M141.44,41.23v-7.48h1.01l.11,1.12h.1c.2-.3.42-.55.68-.74.25-.19.53-.33.84-.42.31-.09.64-.14.99-.14.47,0,.89.08,1.24.24.36.16.64.42.84.78s.31.85.31,1.46v5.16h-1.25v-4.99c0-.31-.04-.57-.12-.77-.08-.2-.19-.36-.33-.47-.14-.11-.3-.19-.5-.24s-.41-.07-.65-.07c-.35,0-.68.09-1,.26-.31.17-.56.42-.75.74-.18.32-.28.71-.28,1.15v4.39h-1.25Z"/>
        <path class="cls-2" d="M152.06,41.4c-.51,0-.96-.05-1.35-.16-.39-.1-.71-.26-.97-.46-.26-.2-.45-.44-.58-.71-.13-.27-.2-.59-.2-.94v-.13s0-.08.01-.11h1.24s-.01.07-.01.1v.09c0,.33.1.59.26.78.17.19.4.32.69.4s.62.11.98.11c.31,0,.6-.04.87-.12s.48-.2.63-.37c.16-.17.23-.38.23-.63,0-.31-.1-.55-.31-.72-.2-.17-.47-.3-.8-.39-.33-.1-.68-.19-1.04-.3-.3-.09-.61-.18-.91-.28-.3-.1-.58-.23-.82-.38-.24-.15-.44-.35-.58-.59-.15-.24-.22-.55-.22-.92,0-.33.07-.63.21-.88.14-.26.33-.47.59-.65.26-.18.57-.31.93-.41.36-.09.77-.14,1.22-.14.47,0,.89.05,1.24.16s.65.25.89.44c.24.19.41.41.53.65.11.24.17.5.17.78v.16c0,.05,0,.09-.01.12h-1.22v-.16c0-.19-.05-.37-.15-.55-.1-.18-.27-.32-.51-.43-.24-.11-.58-.16-1-.16-.27,0-.51.02-.71.06-.2.04-.36.11-.5.2-.13.09-.23.19-.3.31-.07.12-.1.25-.1.41,0,.25.08.44.24.57s.38.24.65.33c.27.08.56.18.87.28.33.1.67.19,1.02.29.35.1.66.22.95.38s.52.36.7.62c.18.26.26.6.26,1.03,0,.4-.08.74-.23,1.04s-.37.54-.65.73c-.28.19-.61.33-.98.42s-.78.13-1.23.13Z"/>
        <path class="cls-2" d="M159.77,41.4c-.76,0-1.4-.14-1.91-.42-.52-.28-.91-.71-1.18-1.29-.27-.58-.4-1.31-.4-2.2s.13-1.64.4-2.21c.27-.57.66-1,1.18-1.28.52-.28,1.15-.42,1.91-.42s1.4.14,1.91.42c.52.28.91.71,1.17,1.28.27.57.4,1.31.4,2.21s-.13,1.63-.4,2.2c-.27.58-.66,1.01-1.17,1.29-.52.28-1.15.42-1.91.42ZM159.77,40.34c.48,0,.89-.09,1.21-.28.32-.19.57-.49.73-.89.17-.4.25-.91.25-1.53v-.31c0-.63-.08-1.14-.25-1.54-.17-.4-.41-.69-.73-.88-.32-.19-.73-.28-1.21-.28s-.89.09-1.22.28c-.33.19-.57.48-.73.88-.16.4-.24.91-.24,1.54v.31c0,.62.08,1.13.24,1.53.16.4.4.7.73.89.33.19.73.28,1.22.28Z"/>
        <path class="cls-2" d="M167.42,41.4c-.51,0-.96-.05-1.35-.16-.39-.1-.71-.26-.97-.46-.26-.2-.45-.44-.58-.71-.13-.27-.2-.59-.2-.94v-.13s0-.08.01-.11h1.24s-.01.07-.01.1v.09c0,.33.1.59.26.78.17.19.4.32.69.4s.62.11.98.11c.31,0,.6-.04.87-.12s.48-.2.63-.37c.16-.17.23-.38.23-.63,0-.31-.1-.55-.31-.72-.2-.17-.47-.3-.8-.39-.33-.1-.68-.19-1.04-.3-.3-.09-.61-.18-.91-.28-.3-.1-.58-.23-.82-.38-.24-.15-.44-.35-.58-.59-.15-.24-.22-.55-.22-.92,0-.33.07-.63.21-.88.14-.26.33-.47.59-.65.26-.18.57-.31.93-.41.36-.09.77-.14,1.22-.14.47,0,.89.05,1.24.16s.65.25.89.44c.24.19.41.41.53.65.11.24.17.5.17.78v.16c0,.05,0,.09-.01.12h-1.22v-.16c0-.19-.05-.37-.15-.55-.1-.18-.27-.32-.51-.43-.24-.11-.58-.16-1-.16-.27,0-.51.02-.71.06-.2.04-.36.11-.5.2-.13.09-.23.19-.3.31-.07.12-.1.25-.1.41,0,.25.08.44.24.57s.38.24.65.33c.27.08.56.18.87.28.33.1.67.19,1.02.29.35.1.66.22.95.38s.52.36.7.62c.18.26.26.6.26,1.03,0,.4-.08.74-.23,1.04s-.37.54-.65.73c-.28.19-.61.33-.98.42s-.78.13-1.23.13Z"/>
        <path class="cls-2" d="M177.57,41.4c-.62,0-1.14-.14-1.59-.41s-.78-.7-1.02-1.29c-.24-.58-.36-1.34-.36-2.27,0-.88.12-1.61.37-2.18.25-.57.59-.99,1.02-1.27.44-.27.94-.41,1.52-.41.33,0,.64.04.92.11s.54.19.76.36c.22.16.42.37.59.64h.08v-3.74h1.25v10.28h-1.01l-.11-1.07h-.1c-.26.42-.59.73-1,.93s-.85.31-1.34.31ZM177.87,40.3c.47,0,.86-.1,1.15-.31.29-.21.51-.51.65-.91.14-.4.21-.89.21-1.48v-.23c0-.51-.05-.94-.16-1.29-.1-.35-.25-.63-.43-.84-.18-.21-.39-.36-.63-.44-.24-.09-.49-.13-.75-.13-.46,0-.84.09-1.14.28s-.51.47-.65.87c-.14.39-.21.9-.21,1.53v.3c0,.64.08,1.16.23,1.56.15.39.37.68.66.85.29.17.65.26,1.07.26Z"/>
        <path class="cls-2" d="M186.07,41.4c-.74,0-1.36-.14-1.87-.42-.51-.28-.89-.71-1.15-1.29-.26-.58-.39-1.31-.39-2.2s.13-1.64.39-2.21c.26-.57.65-1,1.16-1.28.51-.28,1.15-.42,1.92-.42.7,0,1.29.14,1.76.41.47.27.83.67,1.07,1.21.24.54.36,1.21.36,2.01v.6h-5.37c.02.6.11,1.09.26,1.47.16.38.39.66.7.84s.71.26,1.18.26c.32,0,.6-.04.85-.12.24-.08.45-.2.61-.35.17-.15.29-.33.38-.54.09-.21.13-.44.14-.68h1.22c-.01.4-.09.77-.23,1.1s-.35.62-.63.86c-.27.24-.61.42-1.01.55s-.85.2-1.36.2ZM183.98,36.86h4.05c0-.42-.05-.77-.14-1.05-.1-.28-.23-.52-.41-.7-.18-.18-.38-.31-.61-.39-.23-.08-.5-.12-.79-.12-.44,0-.81.08-1.11.24-.3.16-.54.41-.7.74-.16.33-.26.76-.3,1.28Z"/>
        <path class="cls-2" d="M193.85,41.23v-10.28h1.25v10.28h-1.25Z"/>
        <path class="cls-2" d="M198.93,41.4c-.27,0-.55-.03-.82-.1-.28-.07-.53-.18-.77-.33-.24-.15-.43-.36-.57-.63-.14-.27-.21-.61-.21-1.02,0-.51.12-.93.37-1.27.25-.33.59-.59,1.03-.78.44-.18.96-.31,1.57-.38.61-.07,1.27-.11,1.98-.11v-.85c0-.27-.05-.51-.14-.71-.09-.2-.26-.35-.5-.46-.24-.11-.59-.16-1.03-.16s-.77.05-1.02.16c-.25.11-.43.25-.53.42-.1.17-.15.36-.15.57v.21h-1.21s-.01-.1-.01-.14v-.17c0-.46.13-.84.38-1.14.25-.31.6-.54,1.06-.7.45-.16.98-.23,1.56-.23.63,0,1.15.09,1.57.27.42.18.74.44.95.77.21.33.32.73.32,1.19v4.05c0,.18.04.31.13.38.09.07.19.11.31.11h.55v.83c-.13.06-.28.11-.44.15-.16.04-.35.06-.55.06-.25,0-.45-.05-.61-.15-.16-.1-.28-.24-.37-.41-.09-.17-.14-.37-.17-.59h-.1c-.17.24-.39.44-.65.62-.26.18-.55.31-.87.41-.32.1-.67.14-1.05.14ZM199.24,40.34c.3,0,.59-.05.86-.14.27-.09.51-.23.72-.4.21-.18.37-.39.5-.63.12-.25.18-.52.18-.81v-.63c-.77,0-1.42.04-1.96.13-.54.09-.96.24-1.24.46s-.43.53-.43.92c0,.26.06.46.17.63.11.16.27.28.48.36.21.08.45.12.73.12Z"/>
        <path class="cls-2" d="M212.18,41.4c-1,0-1.84-.18-2.53-.55-.69-.36-1.22-.92-1.59-1.66-.37-.74-.55-1.69-.55-2.84,0-1.7.41-2.96,1.24-3.8.82-.83,1.97-1.25,3.44-1.25.83,0,1.57.14,2.22.41.64.27,1.15.68,1.51,1.22.36.55.55,1.23.55,2.05h-1.37c0-.57-.12-1.04-.36-1.41-.24-.37-.58-.65-1.02-.83-.44-.18-.95-.28-1.54-.28-.68,0-1.27.13-1.76.4s-.87.68-1.12,1.23c-.26.55-.38,1.27-.38,2.14v.3c0,.86.13,1.57.38,2.11.26.54.63.94,1.12,1.2s1.08.38,1.77.38c.61,0,1.13-.09,1.57-.27.44-.18.78-.46,1.02-.83.24-.37.36-.85.36-1.41h1.32c0,.84-.19,1.54-.56,2.08s-.88.94-1.53,1.21c-.64.27-1.38.4-2.2.4Z"/>
        <path class="cls-2" d="M218.12,32.34v-1.39h1.25v1.39h-1.25ZM218.12,41.23v-7.48h1.25v7.48h-1.25Z"/>
        <path class="cls-2" d="M223.64,41.4c-.72,0-1.3-.18-1.73-.55-.44-.37-.65-1.01-.65-1.93v-5.16h1.25v4.99c0,.31.04.57.11.77.08.2.18.36.33.47s.31.19.5.24c.19.05.41.07.63.07.36,0,.69-.09,1-.26.3-.17.55-.42.75-.75s.29-.71.29-1.14v-4.39h1.25v7.48h-1.01l-.11-1.12h-.1c-.2.3-.42.55-.68.74-.25.19-.53.33-.84.42s-.64.13-.99.13Z"/>
        <path class="cls-2" d="M231.86,41.4c-.62,0-1.14-.14-1.59-.41s-.78-.7-1.02-1.29c-.24-.58-.36-1.34-.36-2.27,0-.88.12-1.61.37-2.18.25-.57.59-.99,1.02-1.27.44-.27.94-.41,1.52-.41.33,0,.64.04.92.11s.54.19.76.36c.22.16.42.37.59.64h.08v-3.74h1.25v10.28h-1.01l-.11-1.07h-.1c-.26.42-.59.73-1,.93s-.85.31-1.34.31ZM232.16,40.3c.47,0,.86-.1,1.15-.31.29-.21.51-.51.65-.91.14-.4.21-.89.21-1.48v-.23c0-.51-.05-.94-.16-1.29-.1-.35-.25-.63-.43-.84-.18-.21-.39-.36-.63-.44-.24-.09-.49-.13-.75-.13-.46,0-.84.09-1.14.28s-.51.47-.65.87c-.14.39-.21.9-.21,1.53v.3c0,.64.08,1.16.23,1.56.15.39.37.68.66.85.29.17.65.26,1.07.26Z"/>
        <path class="cls-2" d="M239.25,41.4c-.27,0-.55-.03-.82-.1-.28-.07-.53-.18-.77-.33-.24-.15-.43-.36-.57-.63-.14-.27-.21-.61-.21-1.02,0-.51.12-.93.37-1.27.25-.33.59-.59,1.03-.78.44-.18.96-.31,1.57-.38.61-.07,1.27-.11,1.98-.11v-.85c0-.27-.05-.51-.14-.71-.09-.2-.26-.35-.5-.46-.24-.11-.59-.16-1.03-.16s-.77.05-1.02.16c-.25.11-.43.25-.53.42-.1.17-.15.36-.15.57v.21h-1.21s-.01-.1-.01-.14v-.17c0-.46.13-.84.38-1.14.25-.31.6-.54,1.06-.7.45-.16.98-.23,1.56-.23.63,0,1.15.09,1.57.27.42.18.74.44.95.77.21.33.32.73.32,1.19v4.05c0,.18.04.31.13.38.09.07.19.11.31.11h.55v.83c-.13.06-.28.11-.44.15-.16.04-.35.06-.55.06-.25,0-.45-.05-.61-.15-.16-.1-.28-.24-.37-.41-.09-.17-.14-.37-.17-.59h-.1c-.17.24-.39.44-.65.62-.26.18-.55.31-.87.41-.32.1-.67.14-1.05.14ZM239.57,40.34c.3,0,.59-.05.86-.14.27-.09.51-.23.72-.4.21-.18.37-.39.5-.63.12-.25.18-.52.18-.81v-.63c-.77,0-1.42.04-1.96.13-.54.09-.96.24-1.24.46s-.43.53-.43.92c0,.26.06.46.17.63.11.16.27.28.48.36.21.08.45.12.73.12Z"/>
        <path class="cls-2" d="M247.67,41.4c-.62,0-1.14-.14-1.59-.41s-.78-.7-1.02-1.29c-.24-.58-.36-1.34-.36-2.27,0-.88.12-1.61.37-2.18.25-.57.59-.99,1.02-1.27.44-.27.94-.41,1.52-.41.33,0,.64.04.92.11s.54.19.76.36c.22.16.42.37.59.64h.08v-3.74h1.25v10.28h-1.01l-.11-1.07h-.1c-.26.42-.59.73-1,.93s-.85.31-1.34.31ZM247.97,40.3c.47,0,.86-.1,1.15-.31.29-.21.51-.51.65-.91.14-.4.21-.89.21-1.48v-.23c0-.51-.05-.94-.16-1.29-.1-.35-.25-.63-.43-.84-.18-.21-.39-.36-.63-.44-.24-.09-.49-.13-.75-.13-.46,0-.84.09-1.14.28s-.51.47-.65.87c-.14.39-.21.9-.21,1.53v.3c0,.64.08,1.16.23,1.56.15.39.37.68.66.85.29.17.65.26,1.07.26Z"/>
        <path class="cls-2" d="M112.28,58l3.85-9.75h1.78l3.87,9.75h-1.46l-.95-2.42h-4.75l-.94,2.42h-1.39ZM115.05,54.43h3.85l-1.18-3.06c-.03-.09-.07-.2-.13-.36-.06-.15-.12-.32-.18-.5-.07-.18-.13-.37-.2-.57-.07-.19-.13-.37-.18-.53h-.09c-.07.19-.14.41-.23.65-.08.25-.17.49-.26.72-.08.23-.16.43-.21.59l-1.19,3.06Z"/>
        <path class="cls-2" d="M125.1,58.17c-.72,0-1.3-.18-1.73-.55-.44-.37-.65-1.01-.65-1.93v-5.16h1.25v4.99c0,.31.04.57.11.77.08.2.18.36.33.47s.31.19.5.24c.19.05.41.07.63.07.36,0,.69-.09,1-.26.3-.17.55-.42.75-.75s.29-.71.29-1.14v-4.39h1.25v7.48h-1.01l-.11-1.12h-.1c-.2.3-.42.55-.68.74-.25.19-.53.33-.84.42s-.64.13-.99.13Z"/>
        <path class="cls-2" d="M132.53,58.17c-.39,0-.69-.07-.91-.22-.22-.15-.37-.34-.47-.58-.1-.24-.14-.5-.14-.78v-5.02h-.97v-1.05h1l.23-2.09h1v2.09h1.41v1.05h-1.41v4.83c0,.24.04.41.13.53.09.12.25.18.48.18h.8v.83c-.1.05-.21.08-.34.11-.13.03-.27.05-.41.08-.14.02-.27.04-.39.04Z"/>
        <path class="cls-2" d="M138.07,58.17c-.76,0-1.4-.14-1.91-.42-.52-.28-.91-.71-1.18-1.29-.27-.58-.4-1.31-.4-2.2s.13-1.64.4-2.21c.27-.57.66-1,1.18-1.28.52-.28,1.15-.42,1.91-.42s1.4.14,1.91.42c.52.28.91.71,1.17,1.28s.4,1.31.4,2.21-.13,1.63-.4,2.2c-.27.58-.66,1.01-1.17,1.29-.52.28-1.15.42-1.91.42ZM138.07,57.12c.48,0,.89-.09,1.21-.28.32-.19.57-.49.73-.89.17-.4.25-.91.25-1.53v-.31c0-.63-.08-1.14-.25-1.54-.17-.4-.41-.69-.73-.88-.32-.19-.73-.28-1.21-.28s-.89.1-1.22.28c-.33.19-.57.48-.73.88-.16.4-.24.91-.24,1.54v.31c0,.62.08,1.13.24,1.53.16.4.4.7.73.89.33.19.73.28,1.22.28ZM137.33,49.6l1.22-1.88h1.42v.04s-1.56,1.83-1.56,1.83h-1.08Z"/>
        <path class="cls-2" d="M143.11,58v-7.48h1.01l.11,1.12h.1c.2-.3.42-.55.68-.74.25-.19.53-.33.84-.42.31-.09.64-.13.99-.13.47,0,.89.08,1.24.24.36.16.64.42.84.78s.31.85.31,1.46v5.16h-1.25v-4.99c0-.31-.04-.57-.12-.77-.08-.2-.19-.36-.33-.47-.14-.11-.3-.19-.5-.24-.19-.05-.41-.07-.65-.07-.35,0-.68.09-1,.26-.31.17-.56.42-.75.74-.18.32-.28.71-.28,1.15v4.39h-1.25Z"/>
        <path class="cls-2" d="M154.18,58.17c-.76,0-1.4-.14-1.91-.42-.52-.28-.91-.71-1.18-1.29-.27-.58-.4-1.31-.4-2.2s.13-1.64.4-2.21c.27-.57.66-1,1.18-1.28.52-.28,1.15-.42,1.91-.42s1.4.14,1.91.42c.52.28.91.71,1.17,1.28s.4,1.31.4,2.21-.13,1.63-.4,2.2c-.27.58-.66,1.01-1.17,1.29-.52.28-1.15.42-1.91.42ZM154.18,57.12c.48,0,.89-.09,1.21-.28.32-.19.57-.49.73-.89.17-.4.25-.91.25-1.53v-.31c0-.63-.08-1.14-.25-1.54-.17-.4-.41-.69-.73-.88-.32-.19-.73-.28-1.21-.28s-.89.1-1.22.28c-.33.19-.57.48-.73.88-.16.4-.24.91-.24,1.54v.31c0,.62.08,1.13.24,1.53.16.4.4.7.73.89.33.19.73.28,1.22.28Z"/>
        <path class="cls-2" d="M159.22,58v-7.48h1.01l.11,1.12h.1c.19-.3.4-.55.64-.74.24-.19.5-.33.78-.42.29-.09.59-.13.92-.13.48,0,.9.1,1.25.29s.61.53.78,1h.09c.18-.3.39-.55.63-.73.24-.18.5-.32.8-.42.29-.09.61-.14.94-.14.45,0,.85.08,1.19.23.34.16.61.41.8.77s.29.83.29,1.43v5.22h-1.25v-5.02c0-.3-.04-.55-.11-.75-.07-.2-.17-.35-.31-.46s-.29-.19-.46-.23c-.18-.05-.36-.07-.56-.07-.33,0-.64.09-.92.26-.28.17-.5.42-.68.74s-.26.71-.26,1.15v4.39h-1.25v-5.02c0-.3-.04-.55-.11-.75-.08-.2-.18-.35-.3-.46-.12-.11-.27-.19-.45-.23-.18-.05-.36-.07-.55-.07-.34,0-.66.09-.95.26-.29.17-.52.42-.69.74s-.26.71-.26,1.15v4.39h-1.25Z"/>
        <path class="cls-2" d="M173.32,58.17c-.27,0-.55-.03-.82-.1-.28-.07-.53-.18-.77-.33-.24-.15-.43-.36-.57-.63-.14-.27-.21-.61-.21-1.02,0-.51.12-.93.37-1.27.25-.33.59-.59,1.03-.78.44-.18.96-.31,1.57-.38.61-.07,1.27-.11,1.98-.11v-.85c0-.27-.05-.51-.14-.71-.09-.2-.26-.35-.5-.46-.24-.11-.59-.16-1.03-.16s-.77.05-1.02.16c-.25.11-.43.25-.53.42-.1.17-.15.36-.15.57v.21h-1.21s-.01-.1-.01-.14v-.17c0-.46.13-.84.38-1.15.25-.31.6-.54,1.06-.7.45-.16.98-.23,1.56-.23.63,0,1.15.09,1.57.27.42.18.74.44.95.77.21.33.32.73.32,1.19v4.05c0,.18.04.31.13.38.09.07.19.11.31.11h.55v.83c-.13.06-.28.11-.44.15-.16.04-.35.06-.55.06-.25,0-.45-.05-.61-.15-.16-.1-.28-.24-.37-.41-.09-.17-.14-.37-.17-.59h-.1c-.17.24-.39.44-.65.62-.26.18-.55.31-.87.41-.32.1-.67.14-1.05.14ZM173.63,57.12c.3,0,.59-.05.86-.14.27-.09.51-.23.72-.4.21-.18.37-.39.5-.63.12-.25.18-.52.18-.81v-.63c-.77,0-1.42.04-1.96.13-.54.09-.96.24-1.24.46s-.43.53-.43.92c0,.26.06.46.17.63.11.16.27.28.48.36.21.08.45.12.73.12Z"/>
        <path class="cls-2" d="M184.71,58.17c-.62,0-1.14-.14-1.59-.41s-.78-.7-1.02-1.29c-.24-.58-.36-1.34-.36-2.27,0-.88.12-1.61.37-2.18.25-.57.59-.99,1.02-1.27s.94-.41,1.52-.41c.33,0,.64.04.92.11s.54.19.76.36c.22.16.42.37.59.64h.08v-3.74h1.25v10.28h-1.01l-.11-1.07h-.1c-.26.42-.59.73-1,.93s-.85.31-1.34.31ZM185.01,57.08c.47,0,.86-.1,1.15-.31.29-.21.51-.51.65-.91.14-.4.21-.89.21-1.48v-.23c0-.51-.05-.94-.16-1.29-.1-.35-.25-.63-.43-.84-.18-.21-.39-.36-.63-.44-.24-.08-.49-.13-.75-.13-.46,0-.84.09-1.14.28s-.51.47-.65.87c-.14.39-.21.9-.21,1.53v.3c0,.64.08,1.16.23,1.56.15.39.37.68.66.85.29.17.65.26,1.07.26Z"/>
        <path class="cls-2" d="M193.21,58.17c-.74,0-1.36-.14-1.87-.42-.51-.28-.89-.71-1.15-1.29-.26-.58-.39-1.31-.39-2.2s.13-1.64.39-2.21c.26-.57.65-1,1.16-1.28.51-.28,1.15-.42,1.92-.42.7,0,1.29.13,1.76.41.47.27.83.67,1.07,1.21.24.54.36,1.21.36,2.01v.6h-5.37c.02.6.11,1.09.26,1.47.16.38.39.66.7.84s.71.26,1.18.26c.32,0,.6-.04.85-.12.24-.08.45-.2.61-.35.17-.15.29-.33.38-.54.09-.21.13-.44.14-.68h1.22c-.01.4-.09.77-.23,1.1s-.35.62-.63.86c-.27.24-.61.42-1.01.55s-.85.2-1.36.2ZM191.12,53.64h4.05c0-.42-.05-.77-.14-1.05-.1-.28-.23-.52-.41-.7-.18-.18-.38-.31-.61-.39-.23-.08-.5-.12-.79-.12-.44,0-.81.08-1.11.24-.3.16-.54.41-.7.74-.16.33-.26.76-.3,1.28Z"/>
        <path class="cls-2" d="M201.23,58v-9.75h5.03c.56,0,1.04.1,1.45.29.41.19.72.47.95.82.22.35.33.77.33,1.25,0,.37-.07.71-.2,1.02-.13.31-.32.57-.55.78-.24.21-.51.36-.81.47v.06c.34.08.65.21.92.41.27.2.49.46.66.79s.25.73.25,1.2c0,.64-.13,1.15-.4,1.54s-.62.67-1.07.85c-.45.18-.96.27-1.54.27h-5.03ZM202.58,52.43h3.43c.32,0,.6-.06.84-.19.24-.13.42-.31.56-.54.14-.23.21-.5.21-.79,0-.51-.14-.89-.41-1.13-.28-.24-.64-.36-1.1-.36h-3.53v3.01ZM202.58,56.83h3.67c.48,0,.88-.13,1.18-.38s.46-.67.46-1.26c0-.36-.07-.66-.2-.9-.13-.24-.33-.42-.58-.54-.26-.12-.58-.18-.97-.18h-3.55v3.26Z"/>
        <path class="cls-2" d="M213.23,58.17c-.72,0-1.3-.18-1.73-.55-.44-.37-.65-1.01-.65-1.93v-5.16h1.25v4.99c0,.31.04.57.11.77.08.2.18.36.33.47s.31.19.5.24c.19.05.41.07.63.07.36,0,.69-.09,1-.26.3-.17.55-.42.75-.75s.29-.71.29-1.14v-4.39h1.25v7.48h-1.01l-.11-1.12h-.1c-.2.3-.42.55-.68.74-.25.19-.53.33-.84.42s-.64.13-.99.13Z"/>
        <path class="cls-2" d="M221.89,58.17c-.74,0-1.36-.14-1.87-.42-.51-.28-.89-.71-1.15-1.29-.26-.58-.39-1.31-.39-2.2s.13-1.64.39-2.21c.26-.57.65-1,1.16-1.28.51-.28,1.15-.42,1.92-.42.7,0,1.29.13,1.76.41.47.27.83.67,1.07,1.21.24.54.36,1.21.36,2.01v.6h-5.37c.02.6.11,1.09.26,1.47.16.38.39.66.7.84s.71.26,1.18.26c.32,0,.6-.04.85-.12.24-.08.45-.2.61-.35.17-.15.29-.33.38-.54.09-.21.13-.44.14-.68h1.22c-.01.4-.09.77-.23,1.1s-.35.62-.63.86c-.27.24-.61.42-1.01.55s-.85.2-1.36.2ZM219.8,53.64h4.05c0-.42-.05-.77-.14-1.05-.1-.28-.23-.52-.41-.7-.18-.18-.38-.31-.61-.39-.23-.08-.5-.12-.79-.12-.44,0-.81.08-1.11.24-.3.16-.54.41-.7.74-.16.33-.26.76-.3,1.28Z"/>
        <path class="cls-2" d="M226.7,58v-7.48h1.01l.11,1.12h.1c.2-.3.42-.55.68-.74.25-.19.53-.33.84-.42.31-.09.64-.13.99-.13.47,0,.89.08,1.24.24.36.16.64.42.84.78s.31.85.31,1.46v5.16h-1.25v-4.99c0-.31-.04-.57-.12-.77-.08-.2-.19-.36-.33-.47-.14-.11-.3-.19-.5-.24-.19-.05-.41-.07-.65-.07-.35,0-.68.09-1,.26-.31.17-.56.42-.75.74-.18.32-.28.71-.28,1.15v4.39h-1.25Z"/>
        <path class="cls-2" d="M237.77,58.17c-.76,0-1.4-.14-1.91-.42-.52-.28-.91-.71-1.18-1.29-.27-.58-.4-1.31-.4-2.2s.13-1.64.4-2.21c.27-.57.66-1,1.18-1.28.52-.28,1.15-.42,1.91-.42s1.4.14,1.91.42c.52.28.91.71,1.17,1.28s.4,1.31.4,2.21-.13,1.63-.4,2.2c-.27.58-.66,1.01-1.17,1.29-.52.28-1.15.42-1.91.42ZM237.77,57.12c.48,0,.89-.09,1.21-.28.32-.19.57-.49.73-.89.17-.4.25-.91.25-1.53v-.31c0-.63-.08-1.14-.25-1.54-.17-.4-.41-.69-.73-.88-.32-.19-.73-.28-1.21-.28s-.89.1-1.22.28c-.33.19-.57.48-.73.88-.16.4-.24.91-.24,1.54v.31c0,.62.08,1.13.24,1.53.16.4.4.7.73.89.33.19.73.28,1.22.28Z"/>
        <path class="cls-2" d="M245.42,58.17c-.51,0-.96-.05-1.35-.16-.39-.1-.71-.26-.97-.46-.26-.2-.45-.44-.58-.71-.13-.27-.2-.59-.2-.94v-.13s0-.08.01-.11h1.24s-.01.07-.01.1v.09c0,.33.1.59.26.78.17.19.4.32.69.4s.62.11.98.11c.31,0,.6-.04.87-.12s.48-.2.63-.37c.16-.17.23-.38.23-.63,0-.31-.1-.55-.31-.72-.2-.17-.47-.3-.8-.39-.33-.1-.68-.19-1.04-.3-.3-.09-.61-.18-.91-.28-.3-.1-.58-.23-.82-.38-.24-.15-.44-.35-.58-.59-.15-.24-.22-.55-.22-.92,0-.33.07-.63.21-.88s.33-.47.59-.65.57-.32.93-.41.77-.13,1.22-.13c.47,0,.89.05,1.24.16.36.1.65.25.89.44.24.19.41.41.53.65.11.24.17.5.17.78v.16c0,.05,0,.09-.01.12h-1.22v-.16c0-.19-.05-.37-.15-.55-.1-.17-.27-.32-.51-.43-.24-.11-.58-.16-1-.16-.27,0-.51.02-.71.06-.2.04-.36.11-.5.2-.13.09-.23.19-.3.31-.07.12-.1.25-.1.41,0,.25.08.44.24.57s.38.24.65.33c.27.08.56.18.87.28.33.1.67.19,1.02.29.35.1.66.22.95.38s.52.36.7.62c.18.26.26.6.26,1.03,0,.4-.08.74-.23,1.04s-.37.54-.65.73c-.28.19-.61.33-.98.42s-.78.13-1.23.13Z"/>
        <path class="cls-2" d="M252.15,58l3.85-9.75h1.78l3.87,9.75h-1.46l-.95-2.42h-4.75l-.94,2.42h-1.39ZM254.92,54.43h3.85l-1.18-3.06c-.03-.09-.07-.2-.13-.36-.06-.15-.12-.32-.18-.5-.07-.18-.13-.37-.2-.57-.07-.19-.13-.37-.18-.53h-.09c-.07.19-.14.41-.23.65-.08.25-.17.49-.26.72-.08.23-.16.43-.21.59l-1.19,3.06Z"/>
        <path class="cls-2" d="M262.73,49.11v-1.39h1.25v1.39h-1.25ZM262.73,58v-7.48h1.25v7.48h-1.25Z"/>
        <path class="cls-2" d="M265.93,58v-7.48h1.01l.11,1.24h.1c.08-.24.18-.46.31-.68s.31-.39.54-.53c.23-.14.51-.21.84-.21.14,0,.27.01.39.04.12.02.21.05.26.08v1.15h-.47c-.32,0-.6.05-.83.16-.23.11-.42.26-.58.46-.15.2-.26.44-.33.71s-.11.57-.11.88v4.17h-1.25Z"/>
        <path class="cls-2" d="M273.49,58.17c-.74,0-1.36-.14-1.87-.42-.51-.28-.89-.71-1.15-1.29-.26-.58-.39-1.31-.39-2.2s.13-1.64.39-2.21c.26-.57.65-1,1.16-1.28.51-.28,1.15-.42,1.92-.42.7,0,1.29.13,1.76.41.47.27.83.67,1.07,1.21.24.54.36,1.21.36,2.01v.6h-5.37c.02.6.11,1.09.26,1.47.16.38.39.66.7.84s.71.26,1.18.26c.32,0,.6-.04.85-.12.24-.08.45-.2.61-.35.17-.15.29-.33.38-.54.09-.21.13-.44.14-.68h1.22c-.01.4-.09.77-.23,1.1s-.35.62-.63.86c-.27.24-.61.42-1.01.55s-.85.2-1.36.2ZM271.4,53.64h4.05c0-.42-.05-.77-.14-1.05-.1-.28-.23-.52-.41-.7-.18-.18-.38-.31-.61-.39-.23-.08-.5-.12-.79-.12-.44,0-.81.08-1.11.24-.3.16-.54.41-.7.74-.16.33-.26.76-.3,1.28Z"/>
        <path class="cls-2" d="M280.91,58.17c-.51,0-.96-.05-1.35-.16-.39-.1-.71-.26-.97-.46-.26-.2-.45-.44-.58-.71-.13-.27-.2-.59-.2-.94v-.13s0-.08.01-.11h1.24s-.01.07-.01.1v.09c0,.33.1.59.26.78.17.19.4.32.69.4s.62.11.98.11c.31,0,.6-.04.87-.12s.48-.2.63-.37c.16-.17.23-.38.23-.63,0-.31-.1-.55-.31-.72-.2-.17-.47-.3-.8-.39-.33-.1-.68-.19-1.04-.3-.3-.09-.61-.18-.91-.28-.3-.1-.58-.23-.82-.38-.24-.15-.44-.35-.58-.59-.15-.24-.22-.55-.22-.92,0-.33.07-.63.21-.88s.33-.47.59-.65.57-.32.93-.41.77-.13,1.22-.13c.47,0,.89.05,1.24.16.36.1.65.25.89.44.24.19.41.41.53.65.11.24.17.5.17.78v.16c0,.05,0,.09-.01.12h-1.22v-.16c0-.19-.05-.37-.15-.55-.1-.17-.27-.32-.51-.43-.24-.11-.58-.16-1-.16-.27,0-.51.02-.71.06-.2.04-.36.11-.5.2-.13.09-.23.19-.3.31-.07.12-.1.25-.1.41,0,.25.08.44.24.57s.38.24.65.33c.27.08.56.18.87.28.33.1.67.19,1.02.29.35.1.66.22.95.38s.52.36.7.62c.18.26.26.6.26,1.03,0,.4-.08.74-.23,1.04s-.37.54-.65.73c-.28.19-.61.33-.98.42s-.78.13-1.23.13Z"/>
      </g>
    </g>
  </g>
</svg>