<?xml version="1.0" encoding="UTF-8"?>
<svg id="Capa_2" xmlns="http://www.w3.org/2000/svg" viewBox="0 0 45 56.91">
  <defs>
    <style>
      .cls-1 {
        fill: #fff;
      }
    </style>
  </defs>
  <g id="Capa_1-2" data-name="Capa_1">
    <g id="Logo_IDECBA_Footer">
      <g>
        <path class="cls-1" d="M0,48.98c0-.53.42-.95.95-.95s.95.42.95.95v6.91c0,.53-.42.95-.95.95S0,56.41,0,55.88v-6.91Z"/>
        <path class="cls-1" d="M3.45,49.05c0-.53.42-.95.95-.95h2.43c2.72,0,4.6,1.87,4.6,4.31v.02c0,2.44-1.88,4.33-4.6,4.33h-2.43c-.53,0-.95-.42-.95-.95v-6.76ZM6.83,55.04c1.56,0,2.61-1.05,2.61-2.59v-.02c0-1.53-1.05-2.61-2.61-2.61h-1.47v5.22h1.47Z"/>
        <path class="cls-1" d="M12.51,55.81v-6.76c0-.53.42-.95.95-.95h4.8c.47,0,.85.38.85.85s-.38.84-.85.84h-3.86v1.76h3.3c.47,0,.85.38.85.85s-.38.84-.85.84h-3.3v1.82h3.92c.47,0,.85.38.85.85s-.38.84-.85.84h-4.86c-.53,0-.95-.42-.95-.95Z"/>
        <path class="cls-1" d="M19.8,52.45v-.02c0-2.46,1.86-4.48,4.52-4.48,1.3,0,2.18.35,2.9.88.2.15.37.42.37.75,0,.52-.42.93-.94.93-.26,0-.43-.1-.57-.19-.53-.4-1.09-.62-1.77-.62-1.46,0-2.51,1.21-2.51,2.7v.02c0,1.48,1.03,2.72,2.51,2.72.8,0,1.34-.25,1.88-.68.15-.12.35-.21.57-.21.48,0,.89.4.89.88,0,.3-.15.53-.32.68-.78.68-1.7,1.09-3.08,1.09-2.55,0-4.44-1.97-4.44-4.45Z"/>
        <path class="cls-1" d="M28.7,49.05c0-.53.42-.95.95-.95h3.07c.99,0,1.77.27,2.26.77.4.4.59.88.59,1.47v.02c0,.98-.52,1.52-1.14,1.87,1,.38,1.62.97,1.62,2.13v.02c0,1.58-1.29,2.38-3.24,2.38h-3.17c-.53,0-.95-.42-.95-.95v-6.76ZM32.31,51.6c.84,0,1.37-.27,1.37-.92v-.02c0-.57-.45-.89-1.25-.89h-1.88v1.83h1.76ZM32.82,55.09c.84,0,1.35-.3,1.35-.94v-.02c0-.58-.43-.94-1.41-.94h-2.2v1.91h2.26Z"/>
        <path class="cls-1" d="M36.53,55.54l3.02-6.82c.21-.47.59-.75,1.11-.75h.11c.52,0,.89.28,1.1.75l3.02,6.82c.06.14.1.26.1.38,0,.51-.4.92-.9.92-.45,0-.74-.26-.92-.66l-.58-1.36h-3.81l-.61,1.42c-.16.37-.48.59-.88.59-.5,0-.88-.4-.88-.89,0-.14.05-.27.11-.41ZM41.89,53.13l-1.2-2.86-1.2,2.86h2.4Z"/>
      </g>
      <path class="cls-1" d="M25.16,7.21v-.96c0-.17-.06-.34-.16-.49l-1.66-2.42c-.18-.26-.48-.39-.79-.39-.02,0-.03,0-.05,0-.02,0-.03,0-.05,0-.31,0-.62.14-.79.39l-1.66,2.42c-.1.15-.15.32-.16.49v.96s-.16,12.89-.16,12.89c0,.25.29.37.47.2l4.1-3.99c.26-.25.54-.45.85-.6.1-.05.16-.14.16-.25l-.1-8.25Z"/>
      <path class="cls-1" d="M25.38,25.19c0-.24-.29-.36-.47-.19l-5.26,5.12c-.05.05-.08.12-.08.19l-.11,9.24c0,.31.24.56.55.56h4.99c.31,0,.55-.25.55-.56l-.17-14.36Z"/>
      <g>
        <path class="cls-1" d="M16.26,14.2h-4.37c-.3,0-.55.25-.55.55v9.87c0,.07.03.15.08.2l1.85,1.81c.11.1.28.1.38,0l3.06-2.98c.05-.05.08-.12.08-.2v-8.69c0-.3-.25-.55-.55-.55Z"/>
        <path class="cls-1" d="M33.11,11.37h-4.37c-.3,0-.55.25-.55.55v3.68c0,.1.05.19.14.24.22.13.44.29.63.48l3.86,3.76c.11.1.28.1.38,0l.38-.37c.05-.05.08-.12.08-.2v-7.58c0-.3-.25-.55-.55-.55Z"/>
        <path class="cls-1" d="M33.35,28.21c-.96.1-1.96-.22-2.69-.93l-1.99-1.94c-.17-.17-.47-.05-.47.2v14.01c0,.3.25.55.55.55h4.37c.3,0,.55-.25.55-.55v-11.07c0-.17-.15-.29-.31-.27Z"/>
        <path class="cls-1" d="M16.34,33.34l-.52.5c-1.1,1.07-2.79,1.24-4.07.49-.18-.11-.42.02-.42.23v4.99c0,.3.25.55.55.55h4.37c.3,0,.55-.25.55-.55v-6.02c0-.24-.29-.37-.47-.2Z"/>
      </g>
      <path class="cls-1" d="M44.01,43.05H1.98v-9.71l.99-.96h0s1.1-1.06,1.1-1.06h0s3.65-3.56,3.65-3.56l4.77,4.65c.53.52,1.4.52,1.94,0l11.98-11.67c.11-.1.28-.1.38,0l5.24,5.11c.53.52,1.4.52,1.94,0l8.26-8.04v2.8c0,.74.61,1.33,1.37,1.33s1.37-.6,1.37-1.33v-6.02s0-.03,0-.04c0-.06,0-.12-.02-.18,0-.02,0-.05-.01-.07-.02-.07-.04-.15-.07-.22h0s-.01-.03-.02-.04c-.03-.06-.06-.11-.09-.17-.01-.02-.03-.04-.04-.06-.03-.04-.07-.09-.11-.13-.02-.02-.03-.04-.05-.05-.05-.05-.11-.09-.16-.13,0,0-.01-.01-.02-.01-.07-.04-.13-.08-.21-.11-.02-.01-.05-.02-.07-.03-.05-.02-.11-.04-.17-.05-.02,0-.05-.01-.07-.02-.08-.01-.16-.02-.25-.02h-6.48c-.76,0-1.37.6-1.37,1.33s.61,1.33,1.37,1.33h3.17l-7.1,6.91c-.11.1-.28.1-.38,0l-5.24-5.11c-.53-.52-1.41-.52-1.94,0l-11.98,11.67c-.11.1-.28.1-.38,0l-4.58-4.46c-.53-.52-1.41-.52-1.94,0l-4.77,4.65V.97c0-.54-.44-.97-.99-.97s-.99.44-.99.97v43.05c0,.54.44.97.99.97h43.02c.55,0,.99-.44.99-.97s-.44-.97-.99-.97Z"/>
    </g>
  </g>
</svg>